<svg width="24" height="24" viewBox="0 0 24 24" fill="none" xmlns="http://www.w3.org/2000/svg">
<path d="M12 8.4C11.344 8.4 10.74 8.56 10.188 8.88C9.636 9.2 9.2 9.636 8.88 10.188C8.56 10.74 8.4 11.344 8.4 12C8.4 12.656 8.56 13.26 8.88 13.812C9.2 14.364 9.636 14.8 10.188 15.12C10.74 15.44 11.344 15.6 12 15.6C12.656 15.6 13.26 15.44 13.812 15.12C14.364 14.8 14.8 14.364 15.12 13.812C15.44 13.26 15.6 12.656 15.6 12C15.6 11.344 15.44 10.74 15.12 10.188C14.8 9.636 14.364 9.2 13.812 8.88C13.26 8.56 12.656 8.4 12 8.4ZM12 6C13.088 6 14.092 6.268 15.012 6.804C15.932 7.34 16.66 8.068 17.196 8.988C17.732 9.908 18 10.912 18 12C18 13.088 17.732 14.092 17.196 15.012C16.66 15.932 15.932 16.66 15.012 17.196C14.092 17.732 13.088 18 12 18C10.912 18 9.908 17.732 8.988 17.196C8.068 16.66 7.34 15.932 6.804 15.012C6.268 14.092 6 13.088 6 12C6 10.912 6.268 9.908 6.804 8.988C7.34 8.068 8.068 7.34 8.988 6.804C9.908 6.268 10.912 6 12 6ZM19.8 5.688C19.8 6.104 19.652 6.46 19.356 6.756C19.06 7.052 18.708 7.2 18.3 7.2C17.892 7.2 17.54 7.052 17.244 6.756C16.948 6.46 16.8 6.108 16.8 5.7C16.8 5.292 16.948 4.94 17.244 4.644C17.54 4.348 17.892 4.2 18.3 4.2C18.708 4.2 19.06 4.348 19.356 4.644C19.652 4.94 19.8 5.296 19.8 5.712V5.688ZM12 2.4C10.528 2.4 9.528 2.404 9 2.412C8.472 2.42 7.864 2.44 7.176 2.472C6.31199 2.504 5.592 2.64 5.016 2.88C4.52 3.056 4.084 3.332 3.708 3.708C3.332 4.084 3.048 4.52 2.856 5.016C2.632 5.592 2.504 6.31199 2.472 7.176C2.44 7.832 2.42 8.42 2.412 8.94C2.404 9.46 2.4 10.48 2.4 12C2.4 13.472 2.404 14.472 2.412 15C2.42 15.528 2.44 16.136 2.472 16.824C2.504 17.688 2.632 18.408 2.856 18.984C3.064 19.48 3.352 19.916 3.72 20.292C4.088 20.668 4.52 20.944 5.016 21.12C5.592 21.36 6.31199 21.496 7.176 21.528C7.832 21.56 8.42 21.58 8.94 21.588C9.46 21.596 10.48 21.6 12 21.6C13.472 21.6 14.472 21.596 15 21.588C15.528 21.58 16.136 21.56 16.824 21.528C17.688 21.496 18.408 21.368 18.984 21.144C19.48 20.936 19.916 20.648 20.292 20.28C20.668 19.912 20.952 19.48 21.144 18.984C21.368 18.408 21.496 17.688 21.528 16.824C21.56 16.168 21.58 15.58 21.588 15.06C21.596 14.54 21.6 13.52 21.6 12C21.6 10.528 21.596 9.528 21.588 9C21.58 8.472 21.56 7.864 21.528 7.176C21.496 6.31199 21.36 5.592 21.12 5.016C20.944 4.52 20.668 4.084 20.292 3.708C19.916 3.332 19.48 3.048 18.984 2.856C18.408 2.632 17.688 2.504 16.824 2.472C16.168 2.44 15.58 2.42 15.06 2.412C14.54 2.404 13.52 2.4 12 2.4ZM12 0C13.568 0 14.64 0.00799975 15.216 0.0240004C15.696 0.0240004 16.272 0.0399999 16.944 0.072C18.064 0.120001 19.032 0.303998 19.848 0.624C20.664 0.944002 21.38 1.408 21.996 2.016C22.612 2.624 23.076 3.336 23.388 4.152C23.7 4.968 23.88 5.93599 23.928 7.056C23.96 7.744 23.976 8.32 23.976 8.784C23.992 9.392 24 10.472 24 12.024C24 13.576 23.992 14.64 23.976 15.216C23.976 15.696 23.96 16.272 23.928 16.944C23.88 18.064 23.7 19.032 23.388 19.848C23.076 20.664 22.612 21.38 21.996 21.996C21.38 22.612 20.664 23.076 19.848 23.388C19.032 23.7 18.064 23.88 16.944 23.928C16.256 23.96 15.68 23.976 15.216 23.976C14.608 23.992 13.528 24 11.976 24C10.424 24 9.36 23.992 8.784 23.976C8.304 23.976 7.728 23.96 7.056 23.928C5.93599 23.88 4.968 23.7 4.152 23.388C3.336 23.076 2.62 22.612 2.004 21.996C1.388 21.38 0.924001 20.664 0.612 19.848C0.299999 19.032 0.120001 18.064 0.072 16.944C0.0399999 16.256 0.0240004 15.68 0.0240004 15.216C0.00799975 14.608 0 13.528 0 11.976C0 10.424 0.00799975 9.36 0.0240004 8.784C0.0240004 8.304 0.0399999 7.728 0.072 7.056C0.120001 5.93599 0.299999 4.968 0.612 4.152C0.924001 3.336 1.388 2.62 2.004 2.004C2.62 1.388 3.336 0.924001 4.152 0.612C4.968 0.299999 5.93599 0.120001 7.056 0.072C7.744 0.0399999 8.32 0.0240004 8.784 0.0240004C9.392 0.00799975 10.464 0 12 0Z" fill="#FAFAFA"/>
</svg>
