<svg width="24" height="24" viewBox="0 0 24 24" fill="none" xmlns="http://www.w3.org/2000/svg">
<path d="M14.6667 21.3333H21.3333V2.66667H2.66667V21.3333H12V14.6667H9.33333V12H12V9.78667C12 8.95111 12.0444 8.30222 12.1333 7.84C12.2044 7.44889 12.3378 7.07556 12.5333 6.72C12.8889 6.06222 13.3956 5.55556 14.0533 5.2C14.5689 4.91555 15.3156 4.74667 16.2933 4.69333C16.7378 4.65778 17.3067 4.69333 18 4.8V7.33333H17.3333C16.7289 7.33333 16.2756 7.35111 15.9733 7.38667C15.6711 7.42222 15.44 7.48 15.28 7.56C15.12 7.64 14.9911 7.76889 14.8933 7.94667C14.7956 8.12445 14.7333 8.32889 14.7067 8.56C14.68 8.79111 14.6667 9.2 14.6667 9.78667V12H18L17.3333 14.6667H14.6667V21.3333ZM1.33333 0H22.6667C23.04 0 23.3556 0.128887 23.6133 0.386667C23.8711 0.644446 24 0.959998 24 1.33333V22.6667C24 23.04 23.8711 23.3556 23.6133 23.6133C23.3556 23.8711 23.04 24 22.6667 24H1.33333C0.959998 24 0.644446 23.8711 0.386667 23.6133C0.128887 23.3556 0 23.04 0 22.6667V1.33333C0 0.959998 0.128887 0.644446 0.386667 0.386667C0.644446 0.128887 0.959998 0 1.33333 0Z" fill="#FAFAFA"/>
</svg>
