<svg width="29" height="24" viewBox="0 0 29 24" fill="none" xmlns="http://www.w3.org/2000/svg">
<path d="M19.5998 2.86537C18.8665 2.86537 18.1897 3.05282 17.5693 3.42773C16.9489 3.80264 16.4553 4.30252 16.0887 4.92737C15.7221 5.55222 15.5294 6.23954 15.5106 6.98936L15.4824 9.26765C15.4636 9.51759 15.3602 9.72908 15.1722 9.90211C14.9842 10.0751 14.768 10.1424 14.5236 10.104L12.3239 9.78676C9.44736 9.38301 6.66488 8.0372 3.97636 5.74928C3.56274 8.1141 3.76014 10.1617 4.56858 11.892C5.33941 13.5839 6.73065 15.0835 8.74234 16.3909L11.224 17.9771C11.4685 18.1309 11.5954 18.3616 11.6048 18.6692C11.6142 18.9768 11.4967 19.2171 11.2522 19.3902L9.02435 21.0917C10.3968 21.1686 11.6095 21.1013 12.6623 20.8898C14.9184 20.4284 16.8643 19.5632 18.4999 18.2943C20.1732 16.9869 21.461 15.3143 22.3635 13.2763C23.2847 11.1614 23.7453 8.72934 23.7453 5.98C23.7453 5.6916 23.5855 5.3167 23.2659 4.85527C22.9087 4.31694 22.4481 3.87474 21.8841 3.52867C21.1884 3.08647 20.427 2.86537 19.5998 2.86537ZM12.6905 6.93169C12.7093 5.50895 13.1135 4.2112 13.9031 3.03841C14.6928 1.86561 15.7362 1.01967 17.0335 0.500565C18.3307 -0.0185413 19.6562 -0.133895 21.0098 0.154496C22.3635 0.442889 23.5291 1.08696 24.5068 2.08672L24.9862 2.11556C25.5314 2.13478 25.9826 2.10594 26.3398 2.02904C26.9227 1.89446 27.5713 1.60607 28.2857 1.16387C28.0225 2.49047 27.7969 3.41331 27.6089 3.93242C27.3833 4.62456 27.0355 5.30708 26.5654 5.98C26.5654 9.45993 25.9074 12.5168 24.5914 15.1508C23.4257 17.5157 21.7807 19.4478 19.6562 20.9475C17.7573 22.3125 15.614 23.2354 13.2263 23.716C11.7411 24.0237 10.0584 24.0813 8.17832 23.8891C6.41104 23.7353 4.76129 23.394 3.22903 22.8653C1.69676 22.3366 0.620427 21.7358 0 21.0628C1.01525 20.9859 2.05868 20.8225 3.13032 20.5726C4.8976 20.1496 6.27004 19.5632 7.24769 18.8134L7.05028 18.698C6.11024 18.0636 5.33941 17.4676 4.73779 16.91C3.64734 15.891 2.79191 14.7567 2.17149 13.507C1.36305 11.892 0.958838 10.0944 0.958838 8.11409C0.940037 5.74927 1.50405 3.15378 2.6509 0.327531C5.03861 3.19223 7.45448 5.13404 9.89859 6.15303C10.5566 6.4222 11.083 6.61446 11.4779 6.72981C11.7223 6.78749 12.0419 6.84517 12.4367 6.90285L12.6905 6.93169Z" fill="#FAFAFA"/>
</svg>
