<svg width="22" height="18" fill="none" xmlns="http://www.w3.org/2000/svg"><path d="M19.745 4.458v.603c0 1.486-.28 2.99-.84 4.51a13.003 13.003 0 01-2.464 4.13c-1.084 1.232-2.421 2.233-4.012 3.002-1.59.787-3.426 1.18-5.506 1.18-1.277 0-2.5-.179-3.672-.537A12.837 12.837 0 010 15.838c.192.035.376.052.55.052h.551c1.05 0 2.05-.166 3.003-.498a8.734 8.734 0 002.583-1.416 4.35 4.35 0 01-2.623-.905 4.536 4.536 0 01-1.6-2.215l.433.052a3.7 3.7 0 00.433.026c.21 0 .411-.017.603-.052l.577-.105A4.447 4.447 0 011.927 9.23C1.237 8.408.892 7.447.892 6.346v-.053c.314.158.642.289.983.394.34.104.695.166 1.062.183a4.461 4.461 0 01-1.469-1.6 4.374 4.374 0 01-.55-2.15c0-.42.057-.821.17-1.206.114-.384.267-.743.46-1.075.558.682 1.18 1.302 1.86 1.862.683.56 1.417 1.04 2.203 1.442a13.18 13.18 0 002.518.97c.874.245 1.774.394 2.7.446a5.42 5.42 0 01-.104-1.049c0-1.241.437-2.303 1.31-3.186C12.91.441 13.977 0 15.236 0c.647 0 1.254.131 1.822.393a4.533 4.533 0 011.456 1.05 9.371 9.371 0 001.507-.433c.481-.184.931-.407 1.35-.67-.157.525-.406 1.002-.747 1.43-.34.428-.747.782-1.219 1.062.455-.052.9-.14 1.337-.262A9.74 9.74 0 0022 2.124c-.315.454-.66.878-1.036 1.272a8.77 8.77 0 01-1.22 1.062z" fill="#000"/></svg>