<svg width="167" height="25" viewBox="0 0 167 25" fill="none" xmlns="http://www.w3.org/2000/svg">
<path d="M7.744 24L0.32 1.6H4.672L9.312 15.584L14.24 1.6L17.28 1.6L22.208 15.584L26.848 1.6H31.2L23.776 24H20.736L15.744 9.824L10.784 24H7.744ZM43.6825 18.56V13.92C42.7225 12.64 41.4425 12 39.8425 12C38.6692 12 37.7092 12.4267 36.9625 13.28C36.2158 14.112 35.8425 15.104 35.8425 16.256C35.8425 17.472 36.2265 18.4853 36.9945 19.296C37.7838 20.0853 38.7652 20.48 39.9385 20.48C41.5385 20.48 42.7865 19.84 43.6825 18.56ZM43.8425 24V21.6C43.8425 22.2613 43.4478 22.88 42.6585 23.456C41.8692 24.032 40.8238 24.32 39.5225 24.32C37.1332 24.32 35.1812 23.4453 33.6665 21.696C32.3438 20.16 31.6825 18.3467 31.6825 16.256C31.6825 13.9733 32.4185 12.0533 33.8905 10.496C35.3838 8.93867 37.1865 8.16 39.2985 8.16C40.6638 8.16 41.7518 8.448 42.5625 9.024C43.3732 9.6 43.7998 10.2187 43.8425 10.88V8.48H47.8425V24H43.8425ZM63.69 20.48L64.33 24C63.7327 24.2133 62.8687 24.32 61.738 24.32C59.2633 24.32 57.4713 23.5733 56.362 22.08C55.594 21.056 55.21 19.5093 55.21 17.44V12H50.89V8.48H55.21V4.16H59.37V8.48H64.49V12H59.37V17.92C59.37 18.816 59.5407 19.4667 59.882 19.872C60.33 20.384 61.034 20.64 61.994 20.64C62.6553 20.64 63.2207 20.5867 63.69 20.48ZM78.745 18.56V13.92C77.785 12.64 76.505 12 74.905 12C73.7317 12 72.7717 12.4267 72.025 13.28C71.2783 14.112 70.905 15.104 70.905 16.256C70.905 17.472 71.289 18.4853 72.057 19.296C72.8463 20.0853 73.8277 20.48 75.001 20.48C76.601 20.48 77.849 19.84 78.745 18.56ZM78.905 24V21.6C78.905 22.2613 78.5103 22.88 77.721 23.456C76.9317 24.032 75.8863 24.32 74.585 24.32C72.1957 24.32 70.2437 23.4453 68.729 21.696C67.4063 20.16 66.745 18.3467 66.745 16.256C66.745 13.9733 67.481 12.0533 68.953 10.496C70.4463 8.93867 72.249 8.16 74.361 8.16C75.7263 8.16 76.8143 8.448 77.625 9.024C78.4357 9.6 78.8623 10.2187 78.905 10.88V8.48H82.905V24H78.905ZM96.2245 8.16C96.5658 8.16 97.0352 8.20267 97.6325 8.288L97.1525 12.16C96.8325 12.0533 96.3312 12 95.6485 12C94.8165 12 94.0485 12.2347 93.3445 12.704C92.6618 13.1733 92.1712 13.6853 91.8725 14.24V24H87.7125V8.48H91.7125V10.88C91.7125 10.1973 92.1285 9.57867 92.9605 9.024C93.8138 8.448 94.9018 8.16 96.2245 8.16ZM104.998 8.48V24H100.838V8.48H104.998ZM100.998 4.864C100.464 4.352 100.198 3.72267 100.198 2.976C100.198 2.22933 100.464 1.6 100.998 1.088C101.531 0.576 102.171 0.32 102.918 0.32C103.664 0.32 104.304 0.576 104.838 1.088C105.371 1.6 105.638 2.22933 105.638 2.976C105.638 3.72267 105.371 4.352 104.838 4.864C104.304 5.376 103.664 5.632 102.918 5.632C102.171 5.632 101.531 5.376 100.998 4.864ZM120.526 18.56V13.92C119.566 12.64 118.286 12 116.686 12C115.513 12 114.553 12.4267 113.806 13.28C113.06 14.112 112.686 15.104 112.686 16.256C112.686 17.472 113.07 18.4853 113.838 19.296C114.628 20.0853 115.609 20.48 116.782 20.48C118.382 20.48 119.63 19.84 120.526 18.56ZM120.686 24V21.6C120.686 22.2613 120.292 22.88 119.502 23.456C118.713 24.032 117.668 24.32 116.366 24.32C113.977 24.32 112.025 23.4453 110.51 21.696C109.188 20.16 108.526 18.3467 108.526 16.256C108.526 13.9733 109.262 12.0533 110.734 10.496C112.228 8.93867 114.03 8.16 116.142 8.16C117.465 8.16 118.51 8.42667 119.278 8.96C120.046 9.472 120.462 10.08 120.526 10.784V1.28H124.686V24H120.686ZM130.582 21.984C129.003 20.4267 128.214 18.5173 128.214 16.256C128.214 13.9947 129.003 12.0853 130.582 10.528C132.16 8.94933 134.123 8.16 136.47 8.16C138.816 8.16 140.779 8.94933 142.358 10.528C143.936 12.0853 144.726 13.9947 144.726 16.256C144.726 18.5173 143.936 20.4267 142.358 21.984C140.779 23.5413 138.816 24.32 136.47 24.32C134.123 24.32 132.16 23.5413 130.582 21.984ZM133.526 13.248C132.758 14.0587 132.374 15.0613 132.374 16.256C132.374 17.4507 132.758 18.4533 133.526 19.264C134.294 20.0747 135.275 20.48 136.47 20.48C137.664 20.48 138.646 20.0747 139.414 19.264C140.182 18.4533 140.566 17.4507 140.566 16.256C140.566 15.0613 140.182 14.0587 139.414 13.248C138.646 12.416 137.664 12 136.47 12C135.275 12 134.294 12.416 133.526 13.248ZM156.756 8.16C157.097 8.16 157.566 8.20267 158.164 8.288L157.684 12.16C157.364 12.0533 156.862 12 156.18 12C155.348 12 154.58 12.2347 153.876 12.704C153.193 13.1733 152.702 13.6853 152.404 14.24V24H148.244V8.48H152.244V10.88C152.244 10.1973 152.66 9.57867 153.492 9.024C154.345 8.448 155.433 8.16 156.756 8.16ZM165.529 8.48V24H161.369V8.48H165.529ZM161.529 4.864C160.995 4.352 160.729 3.72267 160.729 2.976C160.729 2.22933 160.995 1.6 161.529 1.088C162.062 0.576 162.702 0.32 163.449 0.32C164.195 0.32 164.835 0.576 165.369 1.088C165.902 1.6 166.169 2.22933 166.169 2.976C166.169 3.72267 165.902 4.352 165.369 4.864C164.835 5.376 164.195 5.632 163.449 5.632C162.702 5.632 162.062 5.376 161.529 4.864Z" fill="#222222"/>
</svg>
