<svg width="1551" height="90" viewBox="0 0 1551 90" fill="none" xmlns="http://www.w3.org/2000/svg">
<path d="M13.8 75.6H12.8V76.6H13.8V75.6ZM13.8 47.4V46.4H12.8V47.4H13.8ZM45.84 51.72L46.5641 51.0303L46.5557 51.0215L46.5471 51.0129L45.84 51.72ZM45.84 71.28L46.5471 71.9871L46.5557 71.9785L46.5641 71.9697L45.84 71.28ZM13.8 36H12.8V37H13.8V36ZM13.8 14.4V13.4H12.8V14.4H13.8ZM39.72 17.88L38.9726 18.5444L38.9814 18.5543L38.9905 18.5639L39.72 17.88ZM39.72 32.52L38.9905 31.8361L38.9814 31.8457L38.9726 31.8556L39.72 32.52ZM52.56 81.36L51.9313 80.5824L51.9255 80.587L51.9198 80.5918L52.56 81.36ZM48 39.84L47.3153 39.1112L46.2701 40.0931L47.5528 40.7344L48 39.84ZM47.64 8.88L48.3157 8.14284L48.3127 8.14006L47.64 8.88ZM1.8 2.99999V1.99999H0.8V2.99999H1.8ZM1.8 87H0.8L0.8 88H1.8L1.8 87ZM14.8 75.6L14.8 47.4H12.8L12.8 75.6H14.8ZM13.8 48.4H32.04V46.4H13.8V48.4ZM32.04 48.4C39.4287 48.4 42.7377 50.032 45.1329 52.4271L46.5471 51.0129C43.6623 48.128 39.7714 46.4 32.04 46.4V48.4ZM45.1159 52.4097C47.3579 54.7638 48.8 57.8832 48.8 61.44H50.8C50.8 57.3168 49.1221 53.7162 46.5641 51.0303L45.1159 52.4097ZM48.8 61.44C48.8 65.0057 47.3512 68.2432 45.1159 70.5903L46.5641 71.9697C49.1288 69.2768 50.8 65.5543 50.8 61.44H48.8ZM45.1329 70.5729C42.7377 72.968 39.4287 74.6 32.04 74.6V76.6C39.7714 76.6 43.6623 74.872 46.5471 71.9871L45.1329 70.5729ZM32.04 74.6H13.8V76.6H32.04V74.6ZM14.8 36V14.4H12.8V36H14.8ZM13.8 15.4H28.2V13.4H13.8V15.4ZM28.2 15.4C34.7971 15.4 37.3287 16.695 38.9726 18.5444L40.4674 17.2156C38.2713 14.745 35.0429 13.4 28.2 13.4V15.4ZM38.9905 18.5639C40.6227 20.305 41.6 22.5826 41.6 25.2H43.6C43.6 22.0574 42.4173 19.295 40.4495 17.1961L38.9905 18.5639ZM41.6 25.2C41.6 27.8174 40.6227 30.095 38.9905 31.8361L40.4495 33.2039C42.4173 31.1049 43.6 28.3426 43.6 25.2H41.6ZM38.9726 31.8556C37.3287 33.705 34.7971 35 28.2 35V37C35.0429 37 38.2713 35.655 40.4674 33.1844L38.9726 31.8556ZM28.2 35H13.8V37H28.2V35ZM34.2 88C42.9 88 48.663 85.9092 53.2002 82.1282L51.9198 80.5918C47.817 84.0108 42.54 86 34.2 86V88ZM53.1887 82.1376C59.0572 77.3929 62.8 70.03 62.8 61.92H60.8C60.8 69.41 57.3428 76.2071 51.9313 80.5824L53.1887 82.1376ZM62.8 61.92C62.8 52.0362 56.683 43.0635 48.4472 38.9456L47.5528 40.7344C55.157 44.5365 60.8 52.8438 60.8 61.92H62.8ZM48.6847 40.5688C52.83 36.6748 55.6 30.8972 55.6 24.84H53.6C53.6 30.3028 51.09 35.5652 47.3153 39.1112L48.6847 40.5688ZM55.6 24.84C55.6 18.3171 52.8405 12.2905 48.3157 8.14284L46.9643 9.61715C51.0795 13.3895 53.6 18.8828 53.6 24.84H55.6ZM48.3127 8.14006C44.1479 4.35386 38.7392 1.99999 30.36 1.99999V3.99999C38.3008 3.99999 43.2121 6.20613 46.9673 9.61994L48.3127 8.14006ZM30.36 1.99999L1.8 1.99999V3.99999L30.36 3.99999V1.99999ZM0.8 2.99999L0.8 87H2.8L2.8 2.99999H0.8ZM1.8 88H34.2V86H1.8L1.8 88ZM72.1578 58.8C72.1578 76.1442 85.0774 89.2 102.318 89.2V87.2C86.1982 87.2 74.1578 75.0558 74.1578 58.8H72.1578ZM102.318 89.2C119.558 89.2 132.478 76.1442 132.478 58.8H130.478C130.478 75.0558 118.437 87.2 102.318 87.2V89.2ZM132.478 58.8C132.478 41.4558 119.558 28.4 102.318 28.4V30.4C118.437 30.4 130.478 42.5441 130.478 58.8H132.478ZM102.318 28.4C85.0774 28.4 72.1578 41.4558 72.1578 58.8H74.1578C74.1578 42.5441 86.1982 30.4 102.318 30.4V28.4ZM85.5578 58.8C85.5578 48.9659 92.4942 41.2 102.318 41.2V39.2C91.2614 39.2 83.5578 47.9941 83.5578 58.8H85.5578ZM102.318 41.2C112.141 41.2 119.078 48.9659 119.078 58.8H121.078C121.078 47.9941 113.374 39.2 102.318 39.2V41.2ZM119.078 58.8C119.078 68.6341 112.141 76.4 102.318 76.4V78.4C113.374 78.4 121.078 69.6059 121.078 58.8H119.078ZM102.318 76.4C92.4942 76.4 85.5578 68.6341 85.5578 58.8H83.5578C83.5578 69.6059 91.2614 78.4 102.318 78.4V76.4ZM179.498 29.76L180.491 29.88L180.604 28.9447L179.677 28.7761L179.498 29.76ZM158.138 37.08H157.138V40.1847L158.95 37.6636L158.138 37.08ZM158.138 30.6H159.138V29.6H158.138V30.6ZM147.098 30.6V29.6H146.098V30.6H147.098ZM147.098 87H146.098V88H147.098V87ZM158.498 87V88H159.498V87H158.498ZM158.498 49.68L157.633 49.1797L157.498 49.4119V49.68H158.498ZM178.178 40.68L177.915 41.6448L179.032 41.9494L179.171 40.8L178.178 40.68ZM179.677 28.7761C178.281 28.5222 176.297 28.4 175.058 28.4V30.4C176.22 30.4 178.076 30.5178 179.32 30.7439L179.677 28.7761ZM175.058 28.4C166.465 28.4 160.279 32.3878 157.326 36.4964L158.95 37.6636C161.517 34.0922 167.091 30.4 175.058 30.4V28.4ZM159.138 37.08V30.6H157.138V37.08H159.138ZM158.138 29.6H147.098V31.6H158.138V29.6ZM146.098 30.6V87H148.098V30.6H146.098ZM147.098 88H158.498V86H147.098V88ZM159.498 87V49.68H157.498V87H159.498ZM159.364 50.1803C162.337 45.0348 168.275 41.2 173.738 41.2V39.2C167.442 39.2 160.9 43.5252 157.633 49.1797L159.364 50.1803ZM173.738 41.2C175.493 41.2 176.715 41.3174 177.915 41.6448L178.442 39.7152C177.002 39.3226 175.584 39.2 173.738 39.2V41.2ZM179.171 40.8L180.491 29.88L178.506 29.64L177.186 40.56L179.171 40.8ZM204.31 30.6H205.31V29.6H204.31V30.6ZM193.27 30.6V29.6H192.27V30.6H193.27ZM193.27 87H192.27V88H193.27V87ZM204.67 87V88H205.67V87H204.67ZM204.67 48.24L203.898 47.6043L203.67 47.8812V48.24H204.67ZM232.51 45.72L231.724 46.3378L231.728 46.3435L231.733 46.3492L232.51 45.72ZM235.87 87H234.87V88H235.87V87ZM247.27 87V88H248.27V87H247.27ZM241.75 39.36L240.963 39.9771L240.965 39.9796L241.75 39.36ZM204.31 36H203.31V38.3462L205.003 36.7214L204.31 36ZM204.31 29.6H193.27V31.6H204.31V29.6ZM192.27 30.6V87H194.27V30.6H192.27ZM193.27 88H204.67V86H193.27V88ZM205.67 87V48.24H203.67V87H205.67ZM205.442 48.8757C208.679 44.9458 213.82 41.2 220.87 41.2V39.2C213.041 39.2 207.382 43.3741 203.898 47.6043L205.442 48.8757ZM220.87 41.2C225.249 41.2 229.277 43.2237 231.724 46.3378L233.297 45.1022C230.463 41.4963 225.851 39.2 220.87 39.2V41.2ZM231.733 46.3492C233.578 48.6282 234.87 51.7322 234.87 58.8H236.87C236.87 51.4678 235.523 47.8518 233.288 45.0908L231.733 46.3492ZM234.87 58.8V87H236.87V58.8H234.87ZM235.87 88L247.27 88V86L235.87 86V88ZM248.27 87V59.4L246.27 59.4V87L248.27 87ZM248.27 59.4C248.27 49.5362 246.318 43.5314 242.535 38.7404L240.965 39.9796C244.383 44.3086 246.27 49.8237 246.27 59.4L248.27 59.4ZM242.537 38.7429C237.553 32.3878 229.826 28.4 221.23 28.4V30.4C229.195 30.4 236.348 34.0922 240.963 39.9771L242.537 38.7429ZM221.23 28.4C212.752 28.4 206.755 32.2666 203.618 35.2786L205.003 36.7214C207.865 33.9734 213.389 30.4 221.23 30.4V28.4ZM205.31 36V30.6H203.31V36H205.31ZM330.204 76.68L331.181 76.4643L330.952 75.4265L329.93 75.7185L330.204 76.68ZM316.164 74.4L316.94 73.7694L316.932 73.7592L316.924 73.7492L316.164 74.4ZM314.484 40.8V39.8H313.484V40.8H314.484ZM332.484 40.8V41.8H333.484V40.8H332.484ZM332.484 30.6H333.484V29.6H332.484V30.6ZM314.484 30.6H313.484V31.6H314.484V30.6ZM314.484 15H315.484V14H314.484V15ZM303.084 15V14H302.084V15H303.084ZM303.084 30.6V31.6H304.084V30.6H303.084ZM288.684 30.6V29.6H287.684V30.6H288.684ZM288.684 40.8H287.684V41.8H288.684V40.8ZM303.084 40.8H304.084V39.8H303.084V40.8ZM307.644 81.6L308.394 80.9383L308.386 80.9297L307.644 81.6ZM332.484 87L332.801 87.9487L333.655 87.6638L333.461 86.7843L332.484 87ZM329.93 75.7185C328.378 76.1618 325.603 76.4 323.964 76.4V78.4C325.686 78.4 328.671 78.1582 330.479 77.6415L329.93 75.7185ZM323.964 76.4C322.578 76.4 321.135 76.1492 319.871 75.682C318.598 75.2114 317.572 74.547 316.94 73.7694L315.388 75.0306C316.316 76.173 317.691 77.0086 319.178 77.558C320.673 78.1107 322.351 78.4 323.964 78.4V76.4ZM316.924 73.7492C315.754 72.3847 315.484 70.2354 315.484 67.2H313.484C313.484 70.1646 313.695 73.0553 315.405 75.0508L316.924 73.7492ZM315.484 67.2V40.8H313.484V67.2H315.484ZM314.484 41.8H332.484V39.8H314.484V41.8ZM333.484 40.8V30.6H331.484V40.8H333.484ZM332.484 29.6H314.484V31.6H332.484V29.6ZM315.484 30.6V15H313.484V30.6H315.484ZM314.484 14L303.084 14V16L314.484 16V14ZM302.084 15V30.6H304.084V15H302.084ZM303.084 29.6H288.684V31.6H303.084V29.6ZM287.684 30.6V40.8H289.684V30.6H287.684ZM288.684 41.8H303.084V39.8H288.684V41.8ZM302.084 40.8V66.6H304.084V40.8H302.084ZM302.084 66.6C302.084 72.826 303.301 78.2832 306.902 82.2703L308.386 80.9297C305.268 77.4768 304.084 72.614 304.084 66.6H302.084ZM306.895 82.2616C310.702 86.5765 316.265 89.2 323.604 89.2V87.2C316.784 87.2 311.787 84.7835 308.394 80.9384L306.895 82.2616ZM323.604 89.2C326.914 89.2 330.508 88.7128 332.801 87.9487L332.168 86.0513C330.141 86.7272 326.774 87.2 323.604 87.2V89.2ZM333.461 86.7843L331.181 76.4643L329.228 76.8957L331.508 87.2157L333.461 86.7843ZM340.517 58.8C340.517 76.1442 353.437 89.2 370.677 89.2V87.2C354.558 87.2 342.517 75.0558 342.517 58.8H340.517ZM370.677 89.2C387.918 89.2 400.837 76.1442 400.837 58.8H398.837C398.837 75.0558 386.797 87.2 370.677 87.2V89.2ZM400.837 58.8C400.837 41.4558 387.918 28.4 370.677 28.4V30.4C386.797 30.4 398.837 42.5441 398.837 58.8H400.837ZM370.677 28.4C353.437 28.4 340.517 41.4558 340.517 58.8H342.517C342.517 42.5441 354.558 30.4 370.677 30.4V28.4ZM353.917 58.8C353.917 48.9659 360.854 41.2 370.677 41.2V39.2C359.621 39.2 351.917 47.9941 351.917 58.8H353.917ZM370.677 41.2C380.501 41.2 387.437 48.9659 387.437 58.8H389.437C389.437 47.9941 381.734 39.2 370.677 39.2V41.2ZM387.437 58.8C387.437 68.6341 380.501 76.4 370.677 76.4V78.4C381.734 78.4 389.437 69.6059 389.437 58.8H387.437ZM370.677 76.4C360.854 76.4 353.917 68.6341 353.917 58.8H351.917C351.917 69.6059 359.621 78.4 370.677 78.4V76.4ZM479.15 76.68L480.126 76.4643L479.897 75.4265L478.875 75.7185L479.15 76.68ZM465.11 74.4L465.886 73.7694L465.878 73.7592L465.869 73.7492L465.11 74.4ZM463.43 40.8V39.8H462.43V40.8H463.43ZM481.43 40.8V41.8H482.43V40.8H481.43ZM481.43 30.6H482.43V29.6H481.43V30.6ZM463.43 30.6H462.43V31.6H463.43V30.6ZM463.43 15H464.43V14H463.43V15ZM452.03 15V14H451.03V15H452.03ZM452.03 30.6V31.6H453.03V30.6H452.03ZM437.63 30.6V29.6H436.63V30.6H437.63ZM437.63 40.8H436.63V41.8H437.63V40.8ZM452.03 40.8H453.03V39.8H452.03V40.8ZM456.59 81.6L457.34 80.9383L457.332 80.9297L456.59 81.6ZM481.43 87L481.746 87.9487L482.6 87.6638L482.406 86.7843L481.43 87ZM478.875 75.7185C477.323 76.1618 474.549 76.4 472.91 76.4V78.4C474.631 78.4 477.616 78.1582 479.424 77.6415L478.875 75.7185ZM472.91 76.4C471.523 76.4 470.081 76.1492 468.816 75.682C467.543 75.2114 466.518 74.547 465.886 73.7694L464.334 75.0306C465.262 76.173 466.636 77.0086 468.123 77.558C469.619 78.1107 471.297 78.4 472.91 78.4V76.4ZM465.869 73.7492C464.699 72.3847 464.43 70.2354 464.43 67.2H462.43C462.43 70.1646 462.64 73.0553 464.35 75.0508L465.869 73.7492ZM464.43 67.2V40.8H462.43V67.2H464.43ZM463.43 41.8H481.43V39.8H463.43V41.8ZM482.43 40.8V30.6H480.43V40.8H482.43ZM481.43 29.6H463.43V31.6H481.43V29.6ZM464.43 30.6V15H462.43V30.6H464.43ZM463.43 14H452.03V16H463.43V14ZM451.03 15V30.6H453.03V15H451.03ZM452.03 29.6H437.63V31.6H452.03V29.6ZM436.63 30.6V40.8H438.63V30.6H436.63ZM437.63 41.8H452.03V39.8H437.63V41.8ZM451.03 40.8V66.6H453.03V40.8H451.03ZM451.03 66.6C451.03 72.826 452.246 78.2832 455.848 82.2703L457.332 80.9297C454.213 77.4768 453.03 72.614 453.03 66.6H451.03ZM455.84 82.2616C459.647 86.5765 465.21 89.2 472.55 89.2V87.2C465.729 87.2 460.732 84.7835 457.34 80.9384L455.84 82.2616ZM472.55 89.2C475.86 89.2 479.454 88.7128 481.746 87.9487L481.113 86.0513C479.086 86.7272 475.72 87.2 472.55 87.2V89.2ZM482.406 86.7843L480.126 76.4643L478.173 76.8957L480.453 87.2157L482.406 86.7843ZM529.42 29.76L530.413 29.88L530.526 28.9447L529.599 28.7761L529.42 29.76ZM508.06 37.08H507.06V40.1847L508.872 37.6636L508.06 37.08ZM508.06 30.6H509.06V29.6H508.06V30.6ZM497.02 30.6V29.6H496.02V30.6H497.02ZM497.02 87H496.02V88H497.02V87ZM508.42 87V88H509.42V87H508.42ZM508.42 49.68L507.554 49.1797L507.42 49.4119V49.68H508.42ZM528.1 40.68L527.837 41.6448L528.954 41.9494L529.093 40.8L528.1 40.68ZM529.599 28.7761C528.203 28.5222 526.219 28.4 524.98 28.4V30.4C526.141 30.4 527.998 30.5178 529.241 30.7439L529.599 28.7761ZM524.98 28.4C516.387 28.4 510.201 32.3878 507.248 36.4964L508.872 37.6636C511.439 34.0922 517.013 30.4 524.98 30.4V28.4ZM509.06 37.08V30.6H507.06V37.08H509.06ZM508.06 29.6H497.02V31.6H508.06V29.6ZM496.02 30.6V87H498.02V30.6H496.02ZM497.02 88H508.42V86H497.02V88ZM509.42 87V49.68H507.42V87H509.42ZM509.286 50.1803C512.259 45.0348 518.196 41.2 523.66 41.2V39.2C517.364 39.2 510.822 43.5252 507.554 49.1797L509.286 50.1803ZM523.66 41.2C525.415 41.2 526.637 41.3174 527.837 41.6448L528.363 39.7152C526.924 39.3226 525.505 39.2 523.66 39.2V41.2ZM529.093 40.8L530.413 29.88L528.428 29.64L527.108 40.56L529.093 40.8ZM582.008 87H581.008V88H582.008V87ZM593.048 87V88H594.048V87H593.048ZM593.048 30.6H594.048V29.6H593.048V30.6ZM582.008 30.6V29.6H581.008V30.6H582.008ZM582.008 35.76L581.356 36.518L583.008 37.9397V35.76H582.008ZM550.568 33L551.078 33.8607L551.079 33.8599L550.568 33ZM550.448 84.48L550.959 83.6201L550.958 83.6193L550.448 84.48ZM582.008 81.84H583.008V79.6034L581.342 81.0948L582.008 81.84ZM581.648 69.36L582.451 69.957L582.648 69.6913V69.36H581.648ZM581.648 48.24H582.648V47.902L582.443 47.6333L581.648 48.24ZM582.008 88H593.048V86H582.008V88ZM594.048 87V30.6H592.048V87H594.048ZM593.048 29.6H582.008V31.6H593.048V29.6ZM581.008 30.6V35.76H583.008V30.6H581.008ZM582.661 35.002C577.298 30.3879 570.939 28.4 564.368 28.4V30.4C570.518 30.4 576.399 32.2521 581.356 36.518L582.661 35.002ZM564.368 28.4C558.92 28.4 554.061 29.763 550.058 32.1401L551.079 33.8599C554.755 31.677 559.257 30.4 564.368 30.4V28.4ZM550.059 32.1393C541.246 37.3526 535.048 47.1536 535.048 58.8H537.048C537.048 47.8864 542.851 38.7274 551.078 33.8607L550.059 32.1393ZM535.048 58.8C535.048 70.4432 541.124 80.1257 549.939 85.3407L550.958 83.6193C542.733 78.7543 537.048 69.7168 537.048 58.8H535.048ZM549.938 85.3399C553.942 87.7175 559.401 89.2 564.608 89.2V87.2C559.736 87.2 554.635 85.8025 550.959 83.6201L549.938 85.3399ZM564.608 89.2C571.556 89.2 577.918 86.8414 582.675 82.5852L581.342 81.0948C576.978 84.9986 571.101 87.2 564.608 87.2V89.2ZM581.008 81.84V87H583.008V81.84H581.008ZM580.846 68.763C577.189 73.678 571.602 76.4 566.168 76.4V78.4C572.255 78.4 578.428 75.362 582.451 69.957L580.846 68.763ZM566.168 76.4C555.822 76.4 548.448 68.3489 548.448 58.8H546.448C546.448 69.4111 554.675 78.4 566.168 78.4V76.4ZM548.448 58.8C548.448 49.4379 555.272 41.2 565.568 41.2V39.2C554.025 39.2 546.448 48.4821 546.448 58.8H548.448ZM565.568 41.2C572.059 41.2 577.539 44.5031 580.853 48.8467L582.443 47.6333C578.798 42.8569 572.758 39.2 565.568 39.2V41.2ZM580.648 48.24V69.36H582.648V48.24H580.648ZM628.985 87L628.067 87.3982L628.329 88H628.985V87ZM636.905 87V88H637.561L637.822 87.3982L636.905 87ZM661.385 30.6L662.302 30.9982L662.909 29.6H661.385V30.6ZM649.625 30.6V29.6H648.969L648.707 30.2016L649.625 30.6ZM632.945 69L632.027 69.3984L632.945 71.51L633.862 69.3984L632.945 69ZM616.265 30.6L617.182 30.2016L616.921 29.6H616.265V30.6ZM604.505 30.6V29.6H602.981L603.587 30.9982L604.505 30.6ZM628.985 88H636.905V86H628.985V88ZM637.822 87.3982L662.302 30.9982L660.467 30.2018L635.987 86.6018L637.822 87.3982ZM661.385 29.6H649.625V31.6H661.385V29.6ZM648.707 30.2016L632.027 68.6016L633.862 69.3984L650.542 30.9984L648.707 30.2016ZM633.862 68.6016L617.182 30.2016L615.347 30.9984L632.027 69.3984L633.862 68.6016ZM616.265 29.6H604.505V31.6H616.265V29.6ZM603.587 30.9982L628.067 87.3982L629.902 86.6018L605.422 30.2018L603.587 30.9982ZM721.896 61.2V62.2H722.791L722.89 61.3104L721.896 61.2ZM720.336 77.64L721.125 78.2539L721.681 77.5395L721.025 76.9156L720.336 77.64ZM712.896 70.56L713.585 69.8356L712.84 69.1268L712.152 69.891L712.896 70.56ZM678.456 61.2V60.2H677.39L677.458 61.2632L678.456 61.2ZM710.136 51.6V52.6H711.396L711.109 51.3728L710.136 51.6ZM679.416 51.6L678.448 51.3463L678.12 52.6H679.416V51.6ZM722.89 61.3104C723.016 60.1735 723.016 59.2884 723.016 58.8H721.016C721.016 59.2716 721.015 60.0665 720.902 61.0896L722.89 61.3104ZM723.016 58.8C723.016 41.6537 711.25 28.4 694.896 28.4V30.4C709.981 30.4 721.016 42.5863 721.016 58.8H723.016ZM694.896 28.4C678.317 28.4 666.416 41.396 666.416 58.8H668.416C668.416 42.364 679.554 30.4 694.896 30.4V28.4ZM666.416 58.8C666.416 76.2723 679.583 89.2 696.576 89.2V87.2C680.688 87.2 668.416 75.1677 668.416 58.8H666.416ZM696.576 89.2C708.41 89.2 716.739 83.8925 721.125 78.2539L719.546 77.0261C715.532 82.1875 707.781 87.2 696.576 87.2V89.2ZM721.025 76.9156L713.585 69.8356L712.206 71.2844L719.646 78.3644L721.025 76.9156ZM712.152 69.891C708.998 73.3961 704.687 77.24 696.696 77.24V79.24C705.504 79.24 710.313 74.9239 713.639 71.229L712.152 69.891ZM696.696 77.24C687.389 77.24 680.021 70.0959 679.454 61.1368L677.458 61.2632C678.091 71.2641 686.322 79.24 696.696 79.24V77.24ZM678.456 62.2H721.896V60.2H678.456V62.2ZM695.256 40.36C701.495 40.36 707.584 45.0641 709.162 51.8272L711.109 51.3728C709.328 43.7359 702.456 38.36 695.256 38.36V40.36ZM710.136 50.6H679.416V52.6H710.136V50.6ZM680.383 51.8537C682.186 44.9804 688.383 40.36 695.256 40.36V38.36C687.488 38.36 680.486 43.5796 678.448 51.3463L680.383 51.8537ZM737.606 87H736.606V88H737.606V87ZM749.006 87V88H750.006V87H749.006ZM749.006 1.8H750.006V0.799995H749.006V1.8ZM737.606 1.8V0.799995H736.606V1.8H737.606ZM737.606 88H749.006V86H737.606V88ZM750.006 87V1.8H748.006V87H750.006ZM749.006 0.799995H737.606V2.8H749.006V0.799995ZM736.606 1.8V87H738.606V1.8H736.606ZM814.308 75.6H813.308V76.6H814.308V75.6ZM814.308 47.4V46.4H813.308V47.4H814.308ZM846.348 51.72L847.072 51.0303L847.064 51.0215L847.055 51.0129L846.348 51.72ZM846.348 71.28L847.055 71.9871L847.064 71.9785L847.072 71.9697L846.348 71.28ZM814.308 36H813.308V37H814.308V36ZM814.308 14.4V13.4H813.308V14.4H814.308ZM840.228 17.88L839.48 18.5444L839.489 18.5543L839.498 18.5639L840.228 17.88ZM840.228 32.52L839.498 31.8361L839.489 31.8457L839.48 31.8556L840.228 32.52ZM853.068 81.36L852.439 80.5824L852.433 80.587L852.428 80.5918L853.068 81.36ZM848.508 39.84L847.823 39.1112L846.778 40.0931L848.061 40.7344L848.508 39.84ZM848.148 8.88L848.824 8.14284L848.82 8.14006L848.148 8.88ZM802.308 2.99999V1.99999H801.308V2.99999H802.308ZM802.308 87H801.308V88H802.308V87ZM815.308 75.6V47.4H813.308V75.6H815.308ZM814.308 48.4H832.548V46.4H814.308V48.4ZM832.548 48.4C839.936 48.4 843.246 50.032 845.641 52.4271L847.055 51.0129C844.17 48.128 840.279 46.4 832.548 46.4V48.4ZM845.624 52.4097C847.866 54.7638 849.308 57.8832 849.308 61.44H851.308C851.308 57.3168 849.63 53.7162 847.072 51.0303L845.624 52.4097ZM849.308 61.44C849.308 65.0057 847.859 68.2432 845.624 70.5903L847.072 71.9697C849.637 69.2768 851.308 65.5543 851.308 61.44H849.308ZM845.641 70.5729C843.246 72.968 839.936 74.6 832.548 74.6V76.6C840.279 76.6 844.17 74.872 847.055 71.9871L845.641 70.5729ZM832.548 74.6H814.308V76.6H832.548V74.6ZM815.308 36V14.4H813.308V36H815.308ZM814.308 15.4L828.708 15.4V13.4L814.308 13.4V15.4ZM828.708 15.4C835.305 15.4 837.837 16.695 839.48 18.5444L840.975 17.2156C838.779 14.745 835.551 13.4 828.708 13.4V15.4ZM839.498 18.5639C841.13 20.305 842.108 22.5826 842.108 25.2H844.108C844.108 22.0574 842.925 19.295 840.957 17.1961L839.498 18.5639ZM842.108 25.2C842.108 27.8174 841.13 30.095 839.498 31.8361L840.957 33.2039C842.925 31.1049 844.108 28.3426 844.108 25.2H842.108ZM839.48 31.8556C837.837 33.705 835.305 35 828.708 35V37C835.551 37 838.779 35.655 840.975 33.1844L839.48 31.8556ZM828.708 35H814.308V37H828.708V35ZM834.708 88C843.408 88 849.171 85.9092 853.708 82.1282L852.428 80.5918C848.325 84.0108 843.048 86 834.708 86V88ZM853.697 82.1376C859.565 77.3929 863.308 70.03 863.308 61.92H861.308C861.308 69.41 857.851 76.2071 852.439 80.5824L853.697 82.1376ZM863.308 61.92C863.308 52.0362 857.191 43.0635 848.955 38.9456L848.061 40.7344C855.665 44.5365 861.308 52.8438 861.308 61.92H863.308ZM849.192 40.5688C853.338 36.6748 856.108 30.8972 856.108 24.84H854.108C854.108 30.3028 851.598 35.5652 847.823 39.1112L849.192 40.5688ZM856.108 24.84C856.108 18.3171 853.348 12.2905 848.824 8.14284L847.472 9.61715C851.587 13.3895 854.108 18.8828 854.108 24.84H856.108ZM848.82 8.14006C844.656 4.35386 839.247 1.99999 830.868 1.99999V3.99999C838.809 3.99999 843.72 6.20613 847.475 9.61994L848.82 8.14006ZM830.868 1.99999H802.308V3.99999H830.868V1.99999ZM801.308 2.99999V87H803.308V2.99999H801.308ZM802.308 88H834.708V86H802.308V88ZM872.666 58.8C872.666 76.1442 885.585 89.2 902.826 89.2V87.2C886.706 87.2 874.666 75.0558 874.666 58.8H872.666ZM902.826 89.2C920.066 89.2 932.986 76.1442 932.986 58.8H930.986C930.986 75.0558 918.945 87.2 902.826 87.2V89.2ZM932.986 58.8C932.986 41.4558 920.066 28.4 902.826 28.4V30.4C918.945 30.4 930.986 42.5441 930.986 58.8H932.986ZM902.826 28.4C885.585 28.4 872.666 41.4558 872.666 58.8H874.666C874.666 42.5441 886.706 30.4 902.826 30.4V28.4ZM886.066 58.8C886.066 48.9659 893.002 41.2 902.826 41.2V39.2C891.769 39.2 884.066 47.9941 884.066 58.8H886.066ZM902.826 41.2C912.649 41.2 919.586 48.9659 919.586 58.8H921.586C921.586 47.9941 913.882 39.2 902.826 39.2V41.2ZM919.586 58.8C919.586 68.6341 912.649 76.4 902.826 76.4V78.4C913.882 78.4 921.586 69.6059 921.586 58.8H919.586ZM902.826 76.4C893.002 76.4 886.066 68.6341 886.066 58.8H884.066C884.066 69.6059 891.769 78.4 902.826 78.4V76.4ZM980.006 29.76L980.999 29.88L981.112 28.9447L980.185 28.7761L980.006 29.76ZM958.646 37.08H957.646V40.1847L959.458 37.6636L958.646 37.08ZM958.646 30.6H959.646V29.6H958.646V30.6ZM947.606 30.6V29.6H946.606V30.6H947.606ZM947.606 87H946.606V88H947.606V87ZM959.006 87V88H960.006V87H959.006ZM959.006 49.68L958.14 49.1797L958.006 49.4119V49.68H959.006ZM978.686 40.68L978.423 41.6448L979.54 41.9494L979.679 40.8L978.686 40.68ZM980.185 28.7761C978.788 28.5222 976.805 28.4 975.566 28.4V30.4C976.727 30.4 978.584 30.5178 979.827 30.7439L980.185 28.7761ZM975.566 28.4C966.973 28.4 960.787 32.3878 957.834 36.4964L959.458 37.6636C962.025 34.0922 967.599 30.4 975.566 30.4V28.4ZM959.646 37.08V30.6H957.646V37.08H959.646ZM958.646 29.6H947.606V31.6H958.646V29.6ZM946.606 30.6V87H948.606V30.6H946.606ZM947.606 88H959.006V86H947.606V88ZM960.006 87V49.68H958.006V87H960.006ZM959.872 50.1803C962.845 45.0348 968.782 41.2 974.246 41.2V39.2C967.95 39.2 961.407 43.5252 958.14 49.1797L959.872 50.1803ZM974.246 41.2C976.001 41.2 977.223 41.3174 978.423 41.6448L978.949 39.7152C977.51 39.3226 976.091 39.2 974.246 39.2V41.2ZM979.679 40.8L980.999 29.88L979.013 29.64L977.693 40.56L979.679 40.8ZM1004.82 30.6H1005.82V29.6H1004.82V30.6ZM993.778 30.6V29.6H992.778V30.6H993.778ZM993.778 87H992.778V88H993.778V87ZM1005.18 87V88H1006.18V87H1005.18ZM1005.18 48.24L1004.41 47.6043L1004.18 47.8812V48.24H1005.18ZM1033.02 45.72L1032.23 46.3378L1032.24 46.3435L1032.24 46.3492L1033.02 45.72ZM1036.38 87H1035.38V88H1036.38V87ZM1047.78 87V88H1048.78V87H1047.78ZM1042.26 39.36L1041.47 39.9771L1041.47 39.9796L1042.26 39.36ZM1004.82 36H1003.82V38.3462L1005.51 36.7214L1004.82 36ZM1004.82 29.6H993.778V31.6H1004.82V29.6ZM992.778 30.6V87H994.778V30.6H992.778ZM993.778 88H1005.18V86H993.778V88ZM1006.18 87V48.24H1004.18V87H1006.18ZM1005.95 48.8757C1009.19 44.9458 1014.33 41.2 1021.38 41.2V39.2C1013.55 39.2 1007.89 43.3741 1004.41 47.6043L1005.95 48.8757ZM1021.38 41.2C1025.76 41.2 1029.78 43.2237 1032.23 46.3378L1033.8 45.1022C1030.97 41.4963 1026.36 39.2 1021.38 39.2V41.2ZM1032.24 46.3492C1034.09 48.6282 1035.38 51.7322 1035.38 58.8H1037.38C1037.38 51.4678 1036.03 47.8518 1033.8 45.0908L1032.24 46.3492ZM1035.38 58.8V87H1037.38V58.8H1035.38ZM1036.38 88H1047.78V86H1036.38V88ZM1048.78 87V59.4H1046.78V87H1048.78ZM1048.78 59.4C1048.78 49.5362 1046.83 43.5314 1043.04 38.7404L1041.47 39.9796C1044.89 44.3086 1046.78 49.8237 1046.78 59.4H1048.78ZM1043.04 38.7429C1038.06 32.3878 1030.33 28.4 1021.74 28.4V30.4C1029.7 30.4 1036.86 34.0922 1041.47 39.9771L1043.04 38.7429ZM1021.74 28.4C1013.26 28.4 1007.26 32.2666 1004.13 35.2786L1005.51 36.7214C1008.37 33.9734 1013.9 30.4 1021.74 30.4V28.4ZM1005.82 36V30.6H1003.82V36H1005.82ZM1130.71 76.68L1131.69 76.4643L1131.46 75.4265L1130.44 75.7185L1130.71 76.68ZM1116.67 74.4L1117.45 73.7694L1117.44 73.7592L1117.43 73.7492L1116.67 74.4ZM1114.99 40.8V39.8H1113.99V40.8H1114.99ZM1132.99 40.8V41.8H1133.99V40.8H1132.99ZM1132.99 30.6H1133.99V29.6H1132.99V30.6ZM1114.99 30.6H1113.99V31.6H1114.99V30.6ZM1114.99 15H1115.99V14H1114.99V15ZM1103.59 15V14H1102.59V15H1103.59ZM1103.59 30.6V31.6H1104.59V30.6H1103.59ZM1089.19 30.6V29.6H1088.19V30.6H1089.19ZM1089.19 40.8H1088.19V41.8H1089.19V40.8ZM1103.59 40.8H1104.59V39.8H1103.59V40.8ZM1108.15 81.6L1108.9 80.9383L1108.89 80.9297L1108.15 81.6ZM1132.99 87L1133.31 87.9487L1134.16 87.6638L1133.97 86.7843L1132.99 87ZM1130.44 75.7185C1128.89 76.1618 1126.11 76.4 1124.47 76.4V78.4C1126.19 78.4 1129.18 78.1582 1130.99 77.6415L1130.44 75.7185ZM1124.47 76.4C1123.09 76.4 1121.64 76.1492 1120.38 75.682C1119.11 75.2114 1118.08 74.547 1117.45 73.7694L1115.9 75.0306C1116.82 76.173 1118.2 77.0086 1119.69 77.558C1121.18 78.1107 1122.86 78.4 1124.47 78.4V76.4ZM1117.43 73.7492C1116.26 72.3847 1115.99 70.2354 1115.99 67.2H1113.99C1113.99 70.1646 1114.2 73.0553 1115.91 75.0508L1117.43 73.7492ZM1115.99 67.2V40.8H1113.99V67.2H1115.99ZM1114.99 41.8H1132.99V39.8H1114.99V41.8ZM1133.99 40.8V30.6H1131.99V40.8H1133.99ZM1132.99 29.6H1114.99V31.6H1132.99V29.6ZM1115.99 30.6V15H1113.99V30.6H1115.99ZM1114.99 14H1103.59V16H1114.99V14ZM1102.59 15V30.6H1104.59V15H1102.59ZM1103.59 29.6H1089.19V31.6H1103.59V29.6ZM1088.19 30.6V40.8H1090.19V30.6H1088.19ZM1089.19 41.8H1103.59V39.8H1089.19V41.8ZM1102.59 40.8V66.6H1104.59V40.8H1102.59ZM1102.59 66.6C1102.59 72.826 1103.81 78.2832 1107.41 82.2703L1108.89 80.9297C1105.78 77.4768 1104.59 72.614 1104.59 66.6H1102.59ZM1107.4 82.2616C1111.21 86.5765 1116.77 89.2 1124.11 89.2V87.2C1117.29 87.2 1112.29 84.7835 1108.9 80.9384L1107.4 82.2616ZM1124.11 89.2C1127.42 89.2 1131.02 88.7128 1133.31 87.9487L1132.68 86.0513C1130.65 86.7272 1127.28 87.2 1124.11 87.2V89.2ZM1133.97 86.7843L1131.69 76.4643L1129.74 76.8957L1132.02 87.2157L1133.97 86.7843ZM1141.03 58.8C1141.03 76.1442 1153.94 89.2 1171.19 89.2V87.2C1155.07 87.2 1143.03 75.0558 1143.03 58.8H1141.03ZM1171.19 89.2C1188.43 89.2 1201.35 76.1442 1201.35 58.8H1199.35C1199.35 75.0558 1187.3 87.2 1171.19 87.2V89.2ZM1201.35 58.8C1201.35 41.4558 1188.43 28.4 1171.19 28.4V30.4C1187.3 30.4 1199.35 42.5441 1199.35 58.8H1201.35ZM1171.19 28.4C1153.94 28.4 1141.03 41.4558 1141.03 58.8H1143.03C1143.03 42.5441 1155.07 30.4 1171.19 30.4V28.4ZM1154.43 58.8C1154.43 48.9659 1161.36 41.2 1171.19 41.2V39.2C1160.13 39.2 1152.43 47.9941 1152.43 58.8H1154.43ZM1171.19 41.2C1181.01 41.2 1187.95 48.9659 1187.95 58.8H1189.95C1189.95 47.9941 1182.24 39.2 1171.19 39.2V41.2ZM1187.95 58.8C1187.95 68.6341 1181.01 76.4 1171.19 76.4V78.4C1182.24 78.4 1189.95 69.6059 1189.95 58.8H1187.95ZM1171.19 76.4C1161.36 76.4 1154.43 68.6341 1154.43 58.8H1152.43C1152.43 69.6059 1160.13 78.4 1171.19 78.4V76.4ZM1279.66 76.68L1280.63 76.4643L1280.4 75.4265L1279.38 75.7185L1279.66 76.68ZM1265.62 74.4L1266.39 73.7694L1266.39 73.7592L1266.38 73.7492L1265.62 74.4ZM1263.94 40.8V39.8H1262.94V40.8H1263.94ZM1281.94 40.8V41.8H1282.94V40.8H1281.94ZM1281.94 30.6H1282.94V29.6H1281.94V30.6ZM1263.94 30.6H1262.94V31.6H1263.94V30.6ZM1263.94 15H1264.94V14H1263.94V15ZM1252.54 15V14H1251.54V15H1252.54ZM1252.54 30.6V31.6H1253.54V30.6H1252.54ZM1238.14 30.6V29.6H1237.14V30.6H1238.14ZM1238.14 40.8H1237.14V41.8H1238.14V40.8ZM1252.54 40.8H1253.54V39.8H1252.54V40.8ZM1257.1 81.6L1257.85 80.9383L1257.84 80.9297L1257.1 81.6ZM1281.94 87L1282.25 87.9487L1283.11 87.6638L1282.91 86.7843L1281.94 87ZM1279.38 75.7185C1277.83 76.1618 1275.06 76.4 1273.42 76.4V78.4C1275.14 78.4 1278.12 78.1582 1279.93 77.6415L1279.38 75.7185ZM1273.42 76.4C1272.03 76.4 1270.59 76.1492 1269.32 75.682C1268.05 75.2114 1267.03 74.547 1266.39 73.7694L1264.84 75.0306C1265.77 76.173 1267.14 77.0086 1268.63 77.558C1270.13 78.1107 1271.8 78.4 1273.42 78.4V76.4ZM1266.38 73.7492C1265.21 72.3847 1264.94 70.2354 1264.94 67.2H1262.94C1262.94 70.1646 1263.15 73.0553 1264.86 75.0508L1266.38 73.7492ZM1264.94 67.2V40.8H1262.94V67.2H1264.94ZM1263.94 41.8H1281.94V39.8H1263.94V41.8ZM1282.94 40.8V30.6H1280.94V40.8H1282.94ZM1281.94 29.6H1263.94V31.6H1281.94V29.6ZM1264.94 30.6V15H1262.94V30.6H1264.94ZM1263.94 14H1252.54V16H1263.94V14ZM1251.54 15V30.6H1253.54V15H1251.54ZM1252.54 29.6H1238.14V31.6H1252.54V29.6ZM1237.14 30.6V40.8H1239.14V30.6H1237.14ZM1238.14 41.8H1252.54V39.8H1238.14V41.8ZM1251.54 40.8V66.6H1253.54V40.8H1251.54ZM1251.54 66.6C1251.54 72.826 1252.75 78.2832 1256.36 82.2703L1257.84 80.9297C1254.72 77.4768 1253.54 72.614 1253.54 66.6H1251.54ZM1256.35 82.2616C1260.15 86.5765 1265.72 89.2 1273.06 89.2V87.2C1266.24 87.2 1261.24 84.7835 1257.85 80.9384L1256.35 82.2616ZM1273.06 89.2C1276.37 89.2 1279.96 88.7128 1282.25 87.9487L1281.62 86.0513C1279.59 86.7272 1276.23 87.2 1273.06 87.2V89.2ZM1282.91 86.7843L1280.63 76.4643L1278.68 76.8957L1280.96 87.2157L1282.91 86.7843ZM1329.93 29.76L1330.92 29.88L1331.03 28.9447L1330.11 28.7761L1329.93 29.76ZM1308.57 37.08H1307.57V40.1847L1309.38 37.6636L1308.57 37.08ZM1308.57 30.6H1309.57V29.6H1308.57V30.6ZM1297.53 30.6V29.6H1296.53V30.6H1297.53ZM1297.53 87H1296.53V88H1297.53V87ZM1308.93 87V88H1309.93V87H1308.93ZM1308.93 49.68L1308.06 49.1797L1307.93 49.4119V49.68H1308.93ZM1328.61 40.68L1328.35 41.6448L1329.46 41.9494L1329.6 40.8L1328.61 40.68ZM1330.11 28.7761C1328.71 28.5222 1326.73 28.4 1325.49 28.4V30.4C1326.65 30.4 1328.51 30.5178 1329.75 30.7439L1330.11 28.7761ZM1325.49 28.4C1316.9 28.4 1310.71 32.3878 1307.76 36.4964L1309.38 37.6636C1311.95 34.0922 1317.52 30.4 1325.49 30.4V28.4ZM1309.57 37.08V30.6H1307.57V37.08H1309.57ZM1308.57 29.6H1297.53V31.6H1308.57V29.6ZM1296.53 30.6V87H1298.53V30.6H1296.53ZM1297.53 88H1308.93V86H1297.53V88ZM1309.93 87V49.68H1307.93V87H1309.93ZM1309.79 50.1803C1312.77 45.0348 1318.7 41.2 1324.17 41.2V39.2C1317.87 39.2 1311.33 43.5252 1308.06 49.1797L1309.79 50.1803ZM1324.17 41.2C1325.92 41.2 1327.14 41.3174 1328.35 41.6448L1328.87 39.7152C1327.43 39.3226 1326.01 39.2 1324.17 39.2V41.2ZM1329.6 40.8L1330.92 29.88L1328.94 29.64L1327.62 40.56L1329.6 40.8ZM1382.52 87H1381.52V88H1382.52V87ZM1393.56 87V88H1394.56V87H1393.56ZM1393.56 30.6H1394.56V29.6H1393.56V30.6ZM1382.52 30.6V29.6H1381.52V30.6H1382.52ZM1382.52 35.76L1381.86 36.518L1383.52 37.9397V35.76H1382.52ZM1351.08 33L1351.59 33.8607L1351.59 33.8599L1351.08 33ZM1350.96 84.48L1351.47 83.6201L1351.47 83.6193L1350.96 84.48ZM1382.52 81.84H1383.52V79.6034L1381.85 81.0948L1382.52 81.84ZM1382.16 69.36L1382.96 69.957L1383.16 69.6913V69.36H1382.16ZM1382.16 48.24H1383.16V47.902L1382.95 47.6333L1382.16 48.24ZM1382.52 88H1393.56V86H1382.52V88ZM1394.56 87V30.6H1392.56V87H1394.56ZM1393.56 29.6H1382.52V31.6H1393.56V29.6ZM1381.52 30.6V35.76H1383.52V30.6H1381.52ZM1383.17 35.002C1377.81 30.3879 1371.45 28.4 1364.88 28.4V30.4C1371.03 30.4 1376.91 32.2521 1381.86 36.518L1383.17 35.002ZM1364.88 28.4C1359.43 28.4 1354.57 29.763 1350.57 32.1401L1351.59 33.8599C1355.26 31.677 1359.77 30.4 1364.88 30.4V28.4ZM1350.57 32.1393C1341.75 37.3526 1335.56 47.1536 1335.56 58.8H1337.56C1337.56 47.8864 1343.36 38.7274 1351.59 33.8607L1350.57 32.1393ZM1335.56 58.8C1335.56 70.4432 1341.63 80.1257 1350.45 85.3407L1351.47 83.6193C1343.24 78.7543 1337.56 69.7168 1337.56 58.8H1335.56ZM1350.45 85.3399C1354.45 87.7175 1359.91 89.2 1365.12 89.2V87.2C1360.24 87.2 1355.14 85.8025 1351.47 83.6201L1350.45 85.3399ZM1365.12 89.2C1372.06 89.2 1378.43 86.8414 1383.18 82.5852L1381.85 81.0948C1377.49 84.9986 1371.61 87.2 1365.12 87.2V89.2ZM1381.52 81.84V87H1383.52V81.84H1381.52ZM1381.35 68.763C1377.7 73.678 1372.11 76.4 1366.68 76.4V78.4C1372.76 78.4 1378.94 75.362 1382.96 69.957L1381.35 68.763ZM1366.68 76.4C1356.33 76.4 1348.96 68.3489 1348.96 58.8H1346.96C1346.96 69.4111 1355.18 78.4 1366.68 78.4V76.4ZM1348.96 58.8C1348.96 49.4379 1355.78 41.2 1366.08 41.2V39.2C1354.53 39.2 1346.96 48.4821 1346.96 58.8H1348.96ZM1366.08 41.2C1372.57 41.2 1378.05 44.5031 1381.36 48.8467L1382.95 47.6333C1379.31 42.8569 1373.27 39.2 1366.08 39.2V41.2ZM1381.16 48.24V69.36H1383.16V48.24H1381.16ZM1429.49 87L1428.58 87.3982L1428.84 88H1429.49V87ZM1437.41 87V88H1438.07L1438.33 87.3982L1437.41 87ZM1461.89 30.6L1462.81 30.9982L1463.42 29.6H1461.89V30.6ZM1450.13 30.6V29.6H1449.48L1449.22 30.2016L1450.13 30.6ZM1433.45 69L1432.54 69.3984L1433.45 71.51L1434.37 69.3984L1433.45 69ZM1416.77 30.6L1417.69 30.2016L1417.43 29.6H1416.77V30.6ZM1405.01 30.6V29.6H1403.49L1404.1 30.9982L1405.01 30.6ZM1429.49 88H1437.41V86H1429.49V88ZM1438.33 87.3982L1462.81 30.9982L1460.98 30.2018L1436.5 86.6018L1438.33 87.3982ZM1461.89 29.6H1450.13V31.6H1461.89V29.6ZM1449.22 30.2016L1432.54 68.6016L1434.37 69.3984L1451.05 30.9984L1449.22 30.2016ZM1434.37 68.6016L1417.69 30.2016L1415.86 30.9984L1432.54 69.3984L1434.37 68.6016ZM1416.77 29.6H1405.01V31.6H1416.77V29.6ZM1404.1 30.9982L1428.58 87.3982L1430.41 86.6018L1405.93 30.2018L1404.1 30.9982ZM1522.4 61.2V62.2H1523.3L1523.4 61.3104L1522.4 61.2ZM1520.84 77.64L1521.63 78.2539L1522.19 77.5395L1521.53 76.9156L1520.84 77.64ZM1513.4 70.56L1514.09 69.8356L1513.35 69.1268L1512.66 69.891L1513.4 70.56ZM1478.96 61.2V60.2H1477.9L1477.97 61.2632L1478.96 61.2ZM1510.64 51.6V52.6H1511.9L1511.62 51.3728L1510.64 51.6ZM1479.92 51.6L1478.96 51.3463L1478.63 52.6H1479.92V51.6ZM1523.4 61.3104C1523.52 60.1735 1523.52 59.2884 1523.52 58.8H1521.52C1521.52 59.2716 1521.52 60.0665 1521.41 61.0896L1523.4 61.3104ZM1523.52 58.8C1523.52 41.6537 1511.76 28.4 1495.4 28.4V30.4C1510.49 30.4 1521.52 42.5863 1521.52 58.8H1523.52ZM1495.4 28.4C1478.83 28.4 1466.92 41.396 1466.92 58.8H1468.92C1468.92 42.364 1480.06 30.4 1495.4 30.4V28.4ZM1466.92 58.8C1466.92 76.2723 1480.09 89.2 1497.08 89.2V87.2C1481.2 87.2 1468.92 75.1677 1468.92 58.8H1466.92ZM1497.08 89.2C1508.92 89.2 1517.25 83.8925 1521.63 78.2539L1520.05 77.0261C1516.04 82.1875 1508.29 87.2 1497.08 87.2V89.2ZM1521.53 76.9156L1514.09 69.8356L1512.71 71.2844L1520.15 78.3644L1521.53 76.9156ZM1512.66 69.891C1509.51 73.3961 1505.19 77.24 1497.2 77.24V79.24C1506.01 79.24 1510.82 74.9239 1514.15 71.229L1512.66 69.891ZM1497.2 77.24C1487.9 77.24 1480.53 70.0959 1479.96 61.1368L1477.97 61.2632C1478.6 71.2641 1486.83 79.24 1497.2 79.24V77.24ZM1478.96 62.2H1522.4V60.2H1478.96V62.2ZM1495.76 40.36C1502 40.36 1508.09 45.0641 1509.67 51.8272L1511.62 51.3728C1509.84 43.7359 1502.96 38.36 1495.76 38.36V40.36ZM1510.64 50.6H1479.92V52.6H1510.64V50.6ZM1480.89 51.8537C1482.69 44.9804 1488.89 40.36 1495.76 40.36V38.36C1488 38.36 1480.99 43.5796 1478.96 51.3463L1480.89 51.8537ZM1538.11 87H1537.11V88H1538.11V87ZM1549.51 87V88H1550.51V87H1549.51ZM1549.51 1.8H1550.51V0.799995H1549.51V1.8ZM1538.11 1.8V0.799995H1537.11V1.8H1538.11ZM1538.11 88H1549.51V86H1538.11V88ZM1550.51 87V1.8H1548.51V87H1550.51ZM1549.51 0.799995H1538.11V2.8H1549.51V0.799995ZM1537.11 1.8V87H1539.11V1.8H1537.11Z" fill="#222222"/>
</svg>
