<svg width="64" height="64" viewBox="0 0 64 64" fill="none" xmlns="http://www.w3.org/2000/svg">
<rect width="64" height="64" fill="#111111"/>
<path d="M27.9722 25.3125C28.3889 24.8958 28.8056 24.8958 29.2222 25.3125C29.6389 25.7292 29.6389 26.1458 29.2222 26.5625L25.0556 30.7986H41.0972C41.6991 30.7986 42 31.0995 42 31.7014C42 32.3032 41.6991 32.6042 41.0972 32.6042H25.0556L29.2222 36.8403C29.6389 37.2569 29.6389 37.6736 29.2222 38.0903C28.8056 38.5069 28.3889 38.5069 27.9722 38.0903L22.2778 32.3264C22.1852 32.2338 22.1157 32.1412 22.0694 32.0486C22.0231 31.956 22 31.8403 22 31.7014C22 31.4699 22.0926 31.2616 22.2778 31.0764L27.9722 25.3125Z" fill="white"/>
</svg>
