<svg width="64" height="64" viewBox="0 0 64 64" fill="none" xmlns="http://www.w3.org/2000/svg">
<rect width="64" height="64" fill="white"/>
<path d="M34.7778 27.5625C34.3611 27.1458 34.3611 26.7292 34.7778 26.3125C35.1944 25.8958 35.6111 25.8958 36.0278 26.3125L41.7222 32.0764C41.9074 32.2616 42 32.4699 42 32.7014C42 32.8403 41.9769 32.956 41.9306 33.0486C41.8843 33.1412 41.8148 33.2338 41.7222 33.3264L36.0278 39.0903C35.6111 39.5069 35.1944 39.5069 34.7778 39.0903C34.3148 38.6273 34.2917 38.2107 34.7083 37.8403L38.9444 33.6042H22.9028C22.3009 33.6042 22 33.3032 22 32.7014C22 32.0995 22.3009 31.7986 22.9028 31.7986H38.9444L34.7778 27.5625Z" fill="#111111"/>
</svg>
