<svg width="119" height="42" viewBox="0 0 119 42" fill="none" xmlns="http://www.w3.org/2000/svg">
<path d="M23.24 3.744L22.784 4.008H8.792V12.072C8.792 12.24 8.768 12.648 8.744 12.864H12.056C12.032 12.576 12.008 12.24 12.008 12.072V6.912H22.112C21.272 12.864 18.248 17.328 12.848 19.992C13.712 20.592 14.816 21.648 15.344 22.296C21.296 19.08 24.752 13.056 25.448 6.192L25.712 5.568L23.24 3.744ZM48.032 6.72L45.728 4.944C45.584 5.016 45.488 5.064 45.368 5.112H39.608C39.968 4.464 40.304 3.816 40.592 3.192C40.76 2.832 40.976 2.472 41.216 2.16L38.024 1.32C37.952 1.68 37.784 2.064 37.64 2.4C35.984 5.928 32.984 9.672 29.72 12.024C30.656 12.552 31.592 13.224 32.336 13.896C34.16 12.552 36.2 10.32 37.928 7.8H44.024C43.4 9.384 42.536 10.944 41.456 12.408C40.16 11.664 38.864 10.944 37.832 10.488L36.176 12.648C37.16 13.056 38.408 13.776 39.632 14.568C37.424 16.944 34.664 18.912 31.712 20.112C32.504 20.592 33.656 21.648 34.304 22.368C37.424 20.688 39.968 18.672 42.104 16.296C42.848 16.848 43.496 17.376 43.88 17.76L45.824 15.312C45.32 14.928 44.672 14.472 43.952 13.992C45.416 11.952 46.64 9.696 47.672 7.2C47.768 7.032 47.912 6.84 48.032 6.72ZM59.144 22.536C65.552 20.04 67.424 15.48 67.424 9.6V4.44C67.424 3.576 67.496 2.808 67.544 2.448L64.184 2.256C64.256 3.024 64.256 3.6 64.256 4.296V9.264C64.256 15.144 62.168 18.096 56.624 20.04C57.608 20.808 58.592 21.84 59.144 22.536ZM54.992 14.112H58.304C58.304 14.064 58.256 13.176 58.256 12.528V4.776C58.256 3.912 58.328 3.24 58.4 2.664L54.944 2.4C55.016 2.904 55.04 3.552 55.04 4.272V12.528C55.04 13.248 54.992 14.064 54.992 14.112ZM87.032 1.776L85.616 2.712C86.696 3.456 87.68 4.68 88.184 5.424L89.648 4.416C89.12 3.672 87.896 2.352 87.032 1.776ZM79.232 3.816C79.232 2.952 79.328 2.4 79.376 2.184L75.848 2.016C75.92 2.544 75.92 3.192 75.92 3.912V20.184C75.92 20.736 75.896 21.48 75.872 21.888H79.28C79.256 21.456 79.232 20.688 79.232 20.184V11.688C81.824 12.792 84.728 14.496 86.576 15.744L87.968 12.96C85.64 11.328 82.064 9.576 79.232 8.568V3.816ZM85.544 7.008L87.08 5.952C86.576 5.232 85.328 3.864 84.512 3.24L83.024 4.2C83.96 4.944 85.016 6.168 85.544 7.008ZM99.464 22.536C105.872 20.04 107.744 15.48 107.744 9.6V4.44C107.744 3.576 107.816 2.808 107.864 2.448L104.504 2.256C104.576 3.024 104.576 3.6 104.576 4.296V9.264C104.576 15.144 102.488 18.096 96.944 20.04C97.928 20.808 98.912 21.84 99.464 22.536ZM95.312 14.112H98.624C98.624 14.064 98.576 13.176 98.576 12.528V4.776C98.576 3.912 98.648 3.24 98.72 2.664L95.264 2.4C95.336 2.904 95.36 3.552 95.36 4.272V12.528C95.36 13.248 95.312 14.064 95.312 14.112Z" fill="#222222"/>
<path d="M9.28 36.86C9.28 36.79 9.27 36.78 9.2 36.78C9.15 36.78 8.83 36.8 7.88 36.8H2.11C1.16 36.8 0.84 36.78 0.79 36.78C0.72 36.78 0.71 36.79 0.71 36.86V37.38C0.71 37.45 0.72 37.46 0.79 37.46C0.84 37.46 1.16 37.44 2.11 37.44H7.88C8.83 37.44 9.15 37.46 9.2 37.46C9.27 37.46 9.28 37.45 9.28 37.38V36.86ZM21.6 40.93C18.98 39.45 17.86 37.16 17.46 34.47C17.47 34.3 17.47 34.13 17.47 33.95C17.47 33.7 17.51 33.5 17.56 33.39C17.59 33.32 17.62 33.27 17.62 33.19C17.62 33.13 17.56 33.09 17.48 33.07C17.26 33.03 16.97 33 16.73 32.99C16.78 33.34 16.79 33.63 16.8 34.18C16.84 37.05 15.46 39.67 12.78 40.96C12.91 41.05 13.04 41.17 13.15 41.32C13.22 41.42 13.25 41.47 13.29 41.47C13.33 41.47 13.37 41.44 13.44 41.4C15.47 40.25 16.83 38.41 17.25 35.9C17.62 37.91 18.7 39.96 20.97 41.41C21.04 41.46 21.08 41.48 21.12 41.48C21.16 41.48 21.19 41.44 21.25 41.34C21.34 41.18 21.46 41.04 21.6 40.93ZM28.86 34.42C28.86 34.35 28.85 34.34 28.78 34.34C28.72 34.34 28.46 34.36 27.64 34.36H27.34V33.7C27.34 33.24 27.36 33.08 27.4 32.99C27.43 32.92 27.46 32.88 27.46 32.8C27.46 32.76 27.41 32.73 27.33 32.72C27.1 32.69 26.92 32.68 26.68 32.67C26.74 32.92 26.75 33.18 26.75 33.7V34.36H26.18C25.36 34.36 25.1 34.34 25.05 34.34C24.98 34.34 24.97 34.35 24.97 34.42V34.82C24.97 34.9 24.98 34.91 25.05 34.91C25.09 34.91 25.34 34.89 26.07 34.89C26.04 37.97 25.9 39.54 24.76 41.01C24.89 41.08 25 41.18 25.11 41.32C25.16 41.38 25.2 41.42 25.23 41.42C25.27 41.42 25.31 41.38 25.36 41.3C26.19 40.06 26.46 38.83 26.57 36.79H27.83C27.82 38.54 27.74 39.46 27.65 40.02C27.57 40.5 27.49 40.79 27.13 40.79C26.87 40.79 26.64 40.76 26.37 40.7C26.43 40.81 26.49 40.99 26.51 41.16C26.53 41.34 26.54 41.34 26.68 41.35C26.87 41.37 27.01 41.38 27.19 41.38C27.76 41.38 28.02 41.06 28.16 40.41C28.29 39.8 28.37 38.9 28.38 37.53C28.4 36.98 28.4 36.65 28.42 36.34C28.42 36.27 28.4 36.25 28.33 36.25C28.27 36.25 28.16 36.27 27.69 36.27H26.6L26.63 34.89H27.64C28.46 34.89 28.72 34.91 28.78 34.91C28.85 34.91 28.86 34.9 28.86 34.82V34.42ZM29.9 40.29C29.9 41.15 29.88 41.51 29.88 41.56C29.88 41.63 29.89 41.64 29.96 41.64H30.42C30.49 41.64 30.5 41.63 30.5 41.56C30.5 41.51 30.48 41.15 30.48 40.29V37C30.69 36.86 30.89 36.71 31.08 36.56C31.47 38.56 31.97 39.84 33.48 41.29C33.54 41.34 33.57 41.37 33.6 41.37C33.63 41.37 33.66 41.33 33.7 41.25C33.78 41.07 33.9 40.92 34 40.84C33 40.03 32.44 39.22 32.07 38.29C32.56 37.96 32.94 37.64 33.3 37.3C33.48 37.15 33.57 37.1 33.65 37.07C33.72 37.05 33.77 37.01 33.77 36.96C33.77 36.91 33.76 36.88 33.69 36.82C33.57 36.71 33.44 36.61 33.26 36.49C33.17 36.64 33.08 36.76 32.97 36.87C32.67 37.19 32.3 37.5 31.9 37.8C31.75 37.3 31.64 36.77 31.54 36.2C31.72 36.04 31.89 35.88 32.05 35.72C32.24 35.54 32.37 35.4 32.46 35.37C32.54 35.35 32.59 35.3 32.59 35.26C32.59 35.22 32.57 35.19 32.51 35.14C32.38 35.03 32.24 34.94 32.02 34.81C31.94 34.98 31.81 35.15 31.7 35.28C31.03 36 29.87 36.86 28.54 37.43C28.63 37.5 28.7 37.6 28.77 37.74C28.82 37.85 28.85 37.9 28.9 37.9C28.93 37.9 28.97 37.88 29.04 37.84C29.33 37.69 29.62 37.53 29.9 37.37V40.29ZM33.88 34.13C33.88 34.06 33.87 34.05 33.8 34.05C33.75 34.05 33.47 34.07 32.63 34.07H30.21C30.29 33.87 30.37 33.67 30.44 33.47C30.52 33.27 30.57 33.12 30.64 33.06C30.7 33.01 30.73 32.97 30.73 32.92C30.73 32.87 30.68 32.83 30.6 32.8C30.42 32.74 30.25 32.7 30.02 32.66C30 32.86 29.98 33.04 29.89 33.32C29.6 34.18 29.22 34.97 28.4 35.81C28.52 35.86 28.63 35.92 28.75 36.02C28.83 36.09 28.87 36.12 28.9 36.12C28.94 36.12 28.97 36.08 29.04 36C29.43 35.5 29.72 35.04 29.95 34.61H32.63C33.47 34.61 33.75 34.63 33.8 34.63C33.87 34.63 33.88 34.62 33.88 34.55V34.13ZM40.53 34.96C40.53 34.89 40.52 34.88 40.44 34.88C40.39 34.88 40.18 34.9 39.48 34.9H39.42V34.08C39.42 33.41 39.44 33.17 39.48 33.05C39.51 32.97 39.53 32.93 39.53 32.88C39.53 32.83 39.48 32.79 39.41 32.78C39.21 32.76 39.03 32.74 38.77 32.73C38.83 33.12 38.84 33.39 38.84 34.1V34.9H38.06C38.1 34.64 38.12 34.38 38.15 34.15C38.16 34.02 38.18 33.95 38.21 33.89C38.24 33.84 38.26 33.81 38.26 33.77C38.26 33.72 38.22 33.68 38.13 33.66C37.97 33.62 37.76 33.58 37.59 33.57C37.61 33.73 37.61 33.92 37.59 34.22C37.54 34.92 37.38 35.85 37.09 36.72C37.18 36.73 37.32 36.77 37.42 36.82C37.49 36.86 37.54 36.88 37.57 36.88C37.62 36.88 37.63 36.83 37.67 36.72C37.79 36.34 37.89 35.89 37.97 35.45H38.84V37.76C38.56 37.89 38.28 38 37.99 38.12C37.64 38.26 37.39 38.33 37.11 38.39C37.18 38.58 37.28 38.81 37.36 38.97C37.4 39.05 37.44 39.09 37.49 39.08C37.53 39.08 37.59 39.03 37.63 38.98C37.68 38.92 37.75 38.87 37.96 38.77L38.84 38.36V39.9C38.84 41.09 38.82 41.61 38.82 41.66C38.82 41.73 38.83 41.74 38.9 41.74H39.35C39.43 41.74 39.44 41.73 39.44 41.66C39.44 41.61 39.42 41.09 39.42 39.89V38.07C39.73 37.92 40.03 37.76 40.34 37.6C40.52 37.51 40.52 37.51 40.5 37.31C40.48 37.18 40.48 37.04 40.49 36.92C40.09 37.14 39.74 37.32 39.42 37.48V35.45H39.48C40.18 35.45 40.39 35.47 40.44 35.47C40.52 35.47 40.53 35.46 40.53 35.39V34.96ZM46.12 35.91C46.12 35.85 46.11 35.84 46.04 35.84C45.99 35.84 45.65 35.86 44.66 35.86H43.34V34.54H44.22C45.15 34.54 45.45 34.56 45.5 34.56C45.57 34.56 45.58 34.55 45.58 34.48V34.07C45.58 34 45.57 33.99 45.5 33.99C45.45 33.99 45.15 34.01 44.22 34.01H43.34C43.34 33.38 43.37 33.18 43.41 33.06C43.44 32.98 43.46 32.94 43.46 32.88C43.46 32.84 43.4 32.8 43.33 32.79C43.14 32.76 42.94 32.74 42.67 32.73C42.74 33.04 42.76 33.32 42.76 34.01H42.17C41.25 34.01 40.96 33.99 40.91 33.99C40.83 33.99 40.82 34 40.82 34.07V34.48C40.82 34.55 40.83 34.56 40.91 34.56C40.96 34.56 41.25 34.54 42.17 34.54H42.76V35.86H41.83C40.84 35.86 40.5 35.84 40.45 35.84C40.38 35.84 40.37 35.85 40.37 35.91V36.33C40.37 36.4 40.38 36.41 40.45 36.41C40.5 36.41 40.84 36.39 41.83 36.39H44.66C45.65 36.39 45.99 36.41 46.04 36.41C46.11 36.41 46.12 36.4 46.12 36.33V35.91ZM46.11 37.69C46.11 37.62 46.1 37.61 46.03 37.61C45.98 37.61 45.66 37.63 44.75 37.63V37.61C44.75 37.15 44.76 37.01 44.81 36.91C44.83 36.86 44.87 36.81 44.87 36.74C44.87 36.71 44.82 36.67 44.74 36.65C44.59 36.62 44.34 36.59 44.1 36.58C44.16 36.82 44.17 37.09 44.17 37.63H41.92C40.93 37.63 40.61 37.61 40.55 37.61C40.48 37.61 40.47 37.62 40.47 37.69V38.1C40.47 38.17 40.48 38.18 40.55 38.18C40.61 38.18 40.93 38.16 41.92 38.16H44.17V40.67C44.17 40.95 44.05 41.04 43.85 41.05C43.52 41.06 43.18 41.05 42.87 41.02C42.96 41.13 43.03 41.3 43.07 41.47C43.12 41.67 43.13 41.67 43.32 41.67C44.01 41.67 44.32 41.62 44.49 41.5C44.71 41.34 44.77 41.12 44.77 40.82C44.77 40.42 44.75 39.99 44.75 39.54V38.16C45.66 38.16 45.98 38.18 46.03 38.18C46.1 38.18 46.11 38.17 46.11 38.1V37.69ZM41.35 38.95C41.24 39.03 41.23 39.04 41.29 39.1C41.69 39.48 42.03 39.93 42.3 40.39C42.34 40.46 42.36 40.47 42.48 40.37L42.74 40.14C42.83 40.06 42.84 40.06 42.8 40C42.48 39.54 42.14 39.11 41.74 38.75C41.69 38.71 41.67 38.7 41.58 38.77L41.35 38.95ZM54.28 37.62C55.39 36.93 56.26 36.3 56.98 35.61C57.22 35.38 57.38 35.23 57.5 35.19C57.58 35.16 57.65 35.11 57.65 35.05C57.65 35 57.63 34.96 57.56 34.9C57.42 34.77 57.23 34.62 57.04 34.5C56.95 34.68 56.79 34.88 56.65 35.03C55.9 35.8 55.1 36.42 54.28 36.93V34.02C54.28 33.5 54.29 33.36 54.34 33.26C54.37 33.19 54.39 33.15 54.39 33.08C54.39 33.03 54.35 33 54.26 32.99C54.06 32.96 53.86 32.94 53.6 32.93C53.65 33.24 53.66 33.54 53.66 34.05V40.25C53.66 40.91 53.9 41.17 54.25 41.3C54.59 41.42 55.1 41.43 55.9 41.43C56.63 41.43 57.2 41.35 57.54 41.1C57.87 40.87 58.02 40.45 58.11 39.61C58.13 39.43 58.14 39.42 57.96 39.35C57.79 39.28 57.64 39.19 57.52 39.09C57.47 39.99 57.34 40.4 57.14 40.57C56.89 40.78 56.53 40.84 55.92 40.84C55.3 40.84 54.92 40.84 54.67 40.77C54.36 40.68 54.28 40.5 54.28 40.02V37.62ZM51.05 40.06C51.05 41.11 51.03 41.56 51.03 41.61C51.03 41.68 51.04 41.69 51.12 41.69H51.6C51.67 41.69 51.68 41.68 51.68 41.61C51.68 41.56 51.66 41.11 51.66 40.06V35.13C51.94 34.66 52.18 34.18 52.39 33.71C52.49 33.48 52.55 33.38 52.62 33.33C52.68 33.29 52.71 33.25 52.71 33.2C52.71 33.15 52.68 33.12 52.6 33.08C52.41 32.99 52.24 32.92 51.99 32.85C51.97 33.03 51.91 33.26 51.81 33.51C51.27 34.86 50.41 36.09 49.23 37.17C49.33 37.27 49.42 37.39 49.49 37.55C49.53 37.64 49.56 37.68 49.61 37.68C49.64 37.68 49.69 37.64 49.75 37.58C50.24 37.1 50.68 36.57 51.08 36.01C51.07 36.52 51.05 37.13 51.05 37.53V40.06ZM66.77 35.29C66.77 35.22 66.76 35.21 66.69 35.21C66.63 35.21 66.34 35.23 65.46 35.23V33.69C66.14 33.7 66.39 33.71 66.44 33.71C66.51 33.71 66.52 33.7 66.52 33.63V33.25C66.52 33.18 66.51 33.17 66.44 33.17C66.39 33.17 66.1 33.19 65.2 33.19H63.29C62.39 33.19 62.1 33.17 62.05 33.17C61.98 33.17 61.97 33.18 61.97 33.25V33.63C61.97 33.7 61.98 33.71 62.05 33.71C62.09 33.71 62.37 33.69 63.17 33.69V34.21C63.17 34.59 63.15 34.93 63.13 35.23H63.07C62.12 35.23 61.8 35.21 61.75 35.21C61.68 35.21 61.67 35.22 61.67 35.29V35.68C61.67 35.74 61.68 35.75 61.75 35.75C61.8 35.75 62.12 35.74 63.07 35.74C63.03 36.03 62.97 36.28 62.89 36.48C62.68 37.08 62.27 37.53 61.66 37.93C61.78 37.99 61.89 38.07 62 38.19C62.08 38.27 62.11 38.31 62.15 38.31C62.18 38.31 62.21 38.28 62.28 38.23C62.85 37.77 63.2 37.33 63.44 36.67C63.53 36.4 63.6 36.09 63.65 35.74H64.89V36.77C64.89 37.55 64.87 37.87 64.87 37.93C64.87 38 64.88 38.01 64.95 38.01H65.39C65.47 38.01 65.48 38 65.48 37.93C65.48 37.87 65.46 37.55 65.46 36.77V35.74C66.33 35.74 66.63 35.75 66.69 35.75C66.76 35.75 66.77 35.74 66.77 35.68V35.29ZM64.89 35.23H63.7C63.73 34.93 63.74 34.6 63.74 34.26V33.69H64.89V35.23ZM70.38 40.84C70.38 40.77 70.37 40.76 70.3 40.76C70.25 40.76 69.94 40.78 69 40.78H66.24V39.46H67.82C68.83 39.46 69.17 39.48 69.23 39.48C69.3 39.48 69.31 39.47 69.31 39.4V39C69.31 38.92 69.3 38.91 69.23 38.91C69.17 38.91 68.83 38.93 67.82 38.93H66.24V38.74C66.24 38.38 66.26 38.18 66.3 38.08C66.33 38.01 66.34 37.98 66.34 37.91C66.34 37.86 66.29 37.82 66.23 37.81C66.03 37.78 65.83 37.76 65.57 37.75C65.63 38.05 65.64 38.36 65.64 38.74V38.93H64.3C63.29 38.93 62.95 38.91 62.89 38.91C62.82 38.91 62.81 38.92 62.81 39V39.4C62.81 39.47 62.82 39.48 62.89 39.48C62.95 39.48 63.29 39.46 64.3 39.46H65.64V40.78H63C62.07 40.78 61.75 40.76 61.7 40.76C61.63 40.76 61.62 40.77 61.62 40.84V41.26C61.62 41.33 61.63 41.34 61.7 41.34C61.75 41.34 62.07 41.32 63 41.32H69C69.94 41.32 70.25 41.34 70.3 41.34C70.37 41.34 70.38 41.33 70.38 41.26V40.84ZM69.25 37.09C69.25 37.37 69.14 37.47 68.78 37.47C68.49 37.47 68.27 37.45 68 37.42C68.08 37.56 68.14 37.71 68.18 37.85C68.22 38.05 68.22 38.05 68.42 38.05C69.16 38.05 69.43 37.99 69.58 37.88C69.78 37.74 69.83 37.56 69.83 37.29C69.83 37.01 69.82 36.63 69.82 36.21V33.98C69.82 33.47 69.83 33.28 69.87 33.18C69.9 33.11 69.93 33.06 69.93 32.98C69.93 32.94 69.89 32.9 69.81 32.89C69.62 32.87 69.42 32.85 69.18 32.84C69.24 33.12 69.25 33.43 69.25 33.99V37.09ZM67.24 35.42C67.24 36.06 67.22 36.32 67.22 36.37C67.22 36.45 67.23 36.46 67.3 36.46H67.74C67.81 36.46 67.82 36.45 67.82 36.37C67.82 36.32 67.8 36.06 67.8 35.42V34.17C67.8 33.75 67.82 33.62 67.86 33.54C67.89 33.49 67.9 33.45 67.9 33.4C67.9 33.35 67.86 33.32 67.79 33.31C67.6 33.29 67.43 33.27 67.17 33.26C67.24 33.55 67.24 33.85 67.24 34.17V35.42ZM78.58 36.65C78 36.25 77.27 35.83 76.7 35.53C76.63 35.49 76.59 35.48 76.54 35.53C76.45 35.63 76.31 35.82 76.16 36.01C76.88 36.36 77.57 36.8 78.18 37.23C77.12 38.64 75.91 39.76 74.31 40.68C74.51 40.73 74.71 40.85 74.87 40.99C74.96 41.07 75.06 41.04 75.16 40.98C76.46 40.17 77.65 39.06 78.74 37.65C79.23 38.03 79.72 38.51 80.18 39.05C80.24 39.12 80.29 39.13 80.36 39.06C80.48 38.93 80.59 38.82 80.7 38.67C80.75 38.6 80.76 38.56 80.69 38.48C80.21 37.96 79.68 37.49 79.13 37.08C79.58 36.44 80.01 35.68 80.4 34.87C80.59 34.53 80.71 34.34 80.83 34.26C80.92 34.19 80.96 34.07 80.84 33.98C80.67 33.84 80.33 33.68 80.01 33.55C79.97 33.95 79.88 34.25 79.67 34.72C79.41 35.31 79.02 35.99 78.58 36.65ZM92.38 36.66C93.02 36.66 93.59 36.68 94.17 36.7C94.26 36.7 94.3 36.67 94.3 36.57V36.15C94.3 36.03 94.28 35.99 94.19 35.99C93.57 36.03 93.06 36.04 92.37 36.04H88.04C87.48 36.04 86.98 36.03 86.4 35.99C86.41 36.16 86.43 36.41 86.46 36.57C86.48 36.69 86.49 36.73 86.6 36.72C87.02 36.69 87.54 36.66 88.04 36.66H90.08C90.06 37.64 89.93 38.38 89.56 39.07C89.15 39.86 88.6 40.38 87.6 40.9C87.81 40.99 88.01 41.09 88.16 41.23C88.25 41.32 88.34 41.28 88.47 41.2C89.24 40.75 89.82 40.13 90.24 39.32C90.65 38.56 90.79 37.8 90.84 36.66H92.38ZM90.98 34.45C91.5 34.45 92.12 34.45 92.66 34.47C92.76 34.47 92.78 34.45 92.78 34.33C92.79 34.21 92.79 34.06 92.78 33.93C92.78 33.83 92.76 33.79 92.67 33.8C92.14 33.83 91.51 33.83 90.98 33.83H89.23C88.78 33.83 88.21 33.82 87.62 33.78C87.63 33.97 87.65 34.2 87.67 34.36C87.68 34.46 87.7 34.5 87.8 34.49C88.29 34.46 88.79 34.45 89.23 34.45H90.98ZM92.87 33.14C93.25 33.48 93.64 34.06 93.87 34.52C93.9 34.57 93.95 34.59 94 34.55L94.31 34.34C94.35 34.31 94.36 34.27 94.34 34.23C94.1 33.79 93.7 33.2 93.36 32.92C93.32 32.89 93.29 32.88 93.26 32.9L92.87 33.14ZM93.81 32.59C94.22 32.97 94.57 33.47 94.81 33.94C94.84 34 94.87 34.01 94.92 33.97L95.21 33.75C95.26 33.71 95.28 33.69 95.25 33.64C95.03 33.22 94.62 32.68 94.26 32.37C94.22 32.34 94.19 32.34 94.15 32.37L93.81 32.59ZM102.379 37.03C102.689 36.74 103.049 36.32 103.339 35.98C103.519 35.77 103.669 35.64 103.769 35.59C103.889 35.53 103.909 35.46 103.799 35.35C103.669 35.22 103.399 35.03 103.169 34.92C103.049 35.25 102.899 35.47 102.729 35.67C101.679 36.95 100.349 38.04 98.6592 38.97C98.8392 39.04 98.9992 39.15 99.1092 39.27C99.1492 39.32 99.2292 39.34 99.2992 39.3C100.149 38.83 100.999 38.24 101.729 37.56V39.85C101.729 40.3 101.719 40.77 101.699 41.23C101.699 41.32 101.729 41.35 101.809 41.35C101.959 41.36 102.139 41.36 102.279 41.35C102.369 41.35 102.399 41.32 102.389 41.23C102.379 40.79 102.379 40.27 102.379 39.83V37.03ZM116.969 34.63C116.489 35.39 115.799 36.05 114.939 36.6C115.149 36.66 115.309 36.73 115.459 36.85C115.539 36.92 115.639 36.92 115.719 36.86C116.489 36.28 117.169 35.58 117.629 34.89C117.689 34.8 117.759 34.69 117.849 34.64C117.969 34.56 117.979 34.45 117.899 34.35C117.789 34.2 117.669 34.08 117.529 33.96C117.479 33.92 117.429 33.89 117.379 33.89C117.339 33.89 117.279 33.91 117.229 33.93C117.139 33.96 117.039 33.99 116.479 33.99H112.319C111.459 33.99 110.869 33.98 110.259 33.92C110.279 34.13 110.329 34.44 110.369 34.61C110.389 34.69 110.429 34.73 110.539 34.72C111.019 34.67 111.609 34.63 112.399 34.63H116.969ZM110.989 40.73C111.209 40.81 111.389 40.91 111.529 41.04C111.619 41.12 111.729 41.1 111.829 41.04C112.619 40.54 113.319 39.84 113.709 39.06C114.119 38.24 114.279 37.25 114.279 36.4C114.279 36.12 114.309 36 114.359 35.91C114.419 35.79 114.419 35.68 114.259 35.62C114.069 35.55 113.759 35.5 113.469 35.48C113.529 35.75 113.559 35.98 113.559 36.31C113.559 37.2 113.429 38 113.059 38.77C112.679 39.57 111.969 40.22 110.989 40.73Z" fill="#222222"/>
</svg>
