<svg width="146" height="28" viewBox="0 0 146 28" fill="none" xmlns="http://www.w3.org/2000/svg">
<path d="M19.344 6.448V3.632H0.784V13.648H3.344V6H16.752C16.752 15.44 15.504 17.584 7.76 25.136L9.584 26.928C17.456 19.216 19.344 16.464 19.344 6.448ZM50.576 6.544V4.624H41.072C41.424 3.44 41.52 2.512 41.52 0.688H39.024C39.024 4.72 38.256 6.928 30.96 13.712L32.656 15.472C37.2 11.248 38.864 9.2 40.112 6.896H48.048C47.952 9.84 47.024 12.56 45.232 15.344C45.232 15.344 41.552 12.592 39.376 11.056L37.936 12.88C40.176 14.32 43.92 17.072 43.92 17.072C41.936 19.568 39.6 21.872 34.864 25.488L36.432 27.376C41.168 23.696 43.6 21.328 45.904 18.48L48.976 20.912L50.48 19.152L47.248 16.688C49.456 13.36 50.576 10.032 50.576 6.544ZM66.832 1.872V15.76H69.232V1.872H66.832ZM78.768 9.968V1.872H81.296V9.968C81.296 20.144 79.632 22.128 72.688 27.344L71.184 25.296C77.456 20.496 78.768 19.312 78.768 9.968ZM103.28 10.224V0.815998H100.816V26.992H103.28V12.656C106.704 14.544 109.968 16.336 113.616 19.024L115.024 16.944C111.088 14.352 107.344 12.176 103.28 10.224ZM108.976 3.76H107.152V8.688H108.976V3.76ZM112.912 3.792H111.088V8.72H112.912V3.792ZM130.832 1.872V15.76H133.232V1.872H130.832ZM142.768 9.968V1.872H145.296V9.968C145.296 20.144 143.632 22.128 136.688 27.344L135.184 25.296C141.456 20.496 142.768 19.312 142.768 9.968Z" fill="#111111"/>
</svg>
