<svg width="24" height="24" viewBox="0 0 24 24" fill="none" xmlns="http://www.w3.org/2000/svg">
<path d="M7.60714 7.66072C8.82143 6.44642 10.2857 5.83929 12 5.83929C13.7143 5.83929 15.1696 6.43749 16.3661 7.63393C17.5625 8.83036 18.1607 10.2857 18.1607 12C18.1607 13.7143 17.5625 15.1696 16.3661 16.3661C15.1696 17.5625 13.7143 18.1607 12 18.1607C10.2857 18.1607 8.83036 17.5625 7.63393 16.3661C6.43749 15.1696 5.83929 13.7143 5.83929 12C5.83929 10.2857 6.42857 8.83929 7.60714 7.66072ZM9.16072 14.8393C9.94643 15.625 10.8929 16.0179 12 16.0179C13.1071 16.0179 14.0536 15.625 14.8393 14.8393C15.625 14.0536 16.0179 13.1071 16.0179 12C16.0179 10.8929 15.625 9.94643 14.8393 9.16072C14.0536 8.375 13.1071 7.98214 12 7.98214C10.8929 7.98214 9.94643 8.375 9.16072 9.16072C8.375 9.94643 7.98214 10.8929 7.98214 12C7.98214 13.1071 8.375 14.0536 9.16072 14.8393ZM19.3929 4.60714C19.6786 4.85714 19.8214 5.17857 19.8214 5.57143C19.8214 5.96429 19.6875 6.30357 19.4196 6.58929C19.1518 6.875 18.8214 7.01786 18.4286 7.01786C18.0357 7.01786 17.6964 6.875 17.4107 6.58929C17.125 6.30357 16.9821 5.96429 16.9821 5.57143C16.9821 5.17857 17.125 4.84822 17.4107 4.58036C17.6964 4.3125 18.0357 4.17857 18.4286 4.17857C18.8214 4.17857 19.1429 4.32143 19.3929 4.60714ZM23.9464 7.07143C23.9821 8.03572 24 9.67856 24 12C24 14.3214 23.9821 15.9643 23.9464 16.9286C23.8393 19.1072 23.1875 20.7946 21.9911 21.9911C20.7946 23.1875 19.1072 23.8214 16.9286 23.8929C15.9643 23.9643 14.3214 24 12 24C9.67856 24 8.03572 23.9643 7.07143 23.8929C4.89285 23.7857 3.21429 23.1429 2.03571 21.9643C1.57143 21.5357 1.19643 21.0357 0.910714 20.4643C0.624999 19.8929 0.419643 19.3393 0.294643 18.8036C0.169642 18.2679 0.107143 17.6429 0.107143 16.9286C0.0357143 15.9643 0 14.3214 0 12C0 9.67856 0.0357143 8.01786 0.107143 7.01786C0.214286 4.87499 0.857137 3.21429 2.03571 2.03571C3.21429 0.821423 4.89285 0.160715 7.07143 0.053571C8.03572 0.0178568 9.67856 0 12 0C14.3214 0 15.9643 0.0178568 16.9286 0.053571C19.1072 0.160715 20.7946 0.812494 21.9911 2.00893C23.1875 3.20536 23.8393 4.89285 23.9464 7.07143ZM21.375 19.0714C21.4821 18.7857 21.5714 18.4196 21.6429 17.9732C21.7143 17.5268 21.7679 16.9911 21.8036 16.3661C21.8393 15.7411 21.8571 15.2321 21.8571 14.8393C21.8571 14.4464 21.8571 13.8929 21.8571 13.1786C21.8571 12.4643 21.8571 12.0625 21.8571 11.9732C21.8571 11.8839 21.8571 11.4911 21.8571 10.7946C21.8571 10.0982 21.8571 9.55357 21.8571 9.16072C21.8571 8.76786 21.8393 8.25893 21.8036 7.63393C21.7679 7.00893 21.7143 6.47322 21.6429 6.02679C21.5714 5.58036 21.4821 5.21429 21.375 4.92857C20.9464 3.82142 20.1786 3.05357 19.0714 2.625C18.7857 2.51786 18.4196 2.42857 17.9732 2.35714C17.5268 2.28571 16.9911 2.23214 16.3661 2.19643C15.7411 2.16071 15.2411 2.14286 14.8661 2.14286C14.4911 2.14286 13.9375 2.14286 13.2054 2.14286C12.4732 2.14286 12.0714 2.14286 12 2.14286C11.9286 2.14286 11.5357 2.14286 10.8214 2.14286C10.1071 2.14286 9.55357 2.14286 9.16072 2.14286C8.76786 2.14286 8.25893 2.16071 7.63393 2.19643C7.00893 2.23214 6.47322 2.28571 6.02679 2.35714C5.58036 2.42857 5.21429 2.51786 4.92857 2.625C3.82142 3.05357 3.05357 3.82142 2.625 4.92857C2.51786 5.21429 2.42857 5.58036 2.35714 6.02679C2.28571 6.47322 2.23214 7.00893 2.19643 7.63393C2.16071 8.25893 2.14286 8.75893 2.14286 9.13393C2.14286 9.50893 2.14286 10.0625 2.14286 10.7946C2.14286 11.5268 2.14286 11.9286 2.14286 12C2.14286 12.1429 2.14286 12.4732 2.14286 12.9911C2.14286 13.5089 2.14286 13.9375 2.14286 14.2768C2.14286 14.6161 2.15179 15.0536 2.16964 15.5893C2.1875 16.125 2.21429 16.5804 2.25 16.9554C2.28571 17.3304 2.33929 17.7143 2.41071 18.1071C2.48214 18.5 2.55357 18.8214 2.625 19.0714C3.08929 20.1786 3.85714 20.9464 4.92857 21.375C5.21429 21.4821 5.58036 21.5714 6.02679 21.6429C6.47322 21.7143 7.00893 21.7679 7.63393 21.8036C8.25893 21.8393 8.75893 21.8571 9.13393 21.8571C9.50893 21.8571 10.0625 21.8571 10.7946 21.8571C11.5268 21.8571 11.9286 21.8571 12 21.8571C12.1071 21.8571 12.5089 21.8571 13.2054 21.8571C13.9018 21.8571 14.4464 21.8571 14.8393 21.8571C15.2321 21.8571 15.7411 21.8393 16.3661 21.8036C16.9911 21.7679 17.5268 21.7143 17.9732 21.6429C18.4196 21.5714 18.7857 21.4821 19.0714 21.375C20.1786 20.9107 20.9464 20.1429 21.375 19.0714Z" fill="#111111"/>
</svg>
