<svg width="22" height="22" viewBox="0 0 22 22" fill="none" xmlns="http://www.w3.org/2000/svg">
<path d="M11 5.34286C10.217 5.34286 9.48177 5.48571 8.79427 5.77143C8.10677 6.07619 7.50998 6.48095 7.00391 6.98571C6.49783 7.49048 6.09202 8.08571 5.78646 8.77143C5.5 9.45715 5.35677 10.1905 5.35677 10.9714C5.35677 11.7524 5.5 12.4857 5.78646 13.1714C6.09202 13.8571 6.49783 14.4524 7.00391 14.9571C7.50998 15.4619 8.10677 15.8667 8.79427 16.1714C9.48177 16.4571 10.217 16.6 11 16.6C11.783 16.6 12.5182 16.4571 13.2057 16.1714C13.8932 15.8667 14.49 15.4619 14.9961 14.9571C15.5022 14.4524 15.908 13.8571 16.2135 13.1714C16.5 12.4857 16.6432 11.7524 16.6432 10.9714C16.6432 10.1905 16.5 9.45715 16.2135 8.77143C15.908 8.08571 15.5022 7.49048 14.9961 6.98571C14.49 6.48095 13.8932 6.07619 13.2057 5.77143C12.5182 5.48571 11.783 5.34286 11 5.34286ZM11 14.6286C9.98784 14.6286 9.1237 14.2714 8.40755 13.5571C7.6914 12.8429 7.33333 11.981 7.33333 10.9714C7.33333 9.9619 7.6914 9.1 8.40755 8.38571C9.1237 7.67143 9.98784 7.31429 11 7.31429C12.0122 7.31429 12.8763 7.67143 13.5924 8.38571C14.3086 9.1 14.6667 9.9619 14.6667 10.9714C14.6667 11.981 14.3086 12.8429 13.5924 13.5571C12.8763 14.2714 12.0122 14.6286 11 14.6286ZM18.1901 5.11429C18.1901 4.75238 18.0612 4.44762 17.8034 4.2C17.5456 3.95238 17.2352 3.82857 16.8724 3.82857C16.5095 3.82857 16.1992 3.95238 15.9414 4.2C15.6836 4.44762 15.5547 4.75238 15.5547 5.11429C15.5547 5.49524 15.6836 5.80952 15.9414 6.05714C16.1992 6.30476 16.5095 6.42857 16.8724 6.42857C17.2352 6.42857 17.5456 6.30476 17.8034 6.05714C18.0612 5.80952 18.1901 5.49524 18.1901 5.11429ZM21.4271 3.8C21.1406 3.05714 20.7157 2.40476 20.1523 1.84286C19.589 1.28095 18.9444 0.857144 18.2188 0.571428C17.7795 0.419047 17.3355 0.3 16.8867 0.214286C16.4379 0.128571 15.9844 0.0857139 15.526 0.0857139C14.9531 0.0476188 14.428 0.0238098 13.9505 0.0142854C13.4731 0.0047618 12.4896 0 11 0C9.51041 0 8.52691 0.0047618 8.04948 0.0142854C7.57205 0.0238098 7.04688 0.0476188 6.47396 0.0857139C6.01562 0.0857139 5.56207 0.128571 5.11328 0.214286C4.66449 0.3 4.23004 0.419047 3.8099 0.571428C3.0651 0.857144 2.41103 1.28095 1.84766 1.84286C1.28429 2.40476 0.859376 3.05714 0.572916 3.8C0.420138 4.21905 0.300782 4.65238 0.214844 5.1C0.128906 5.54762 0.0763888 6 0.057292 6.45714C0.0381944 7.04762 0.0238718 7.57619 0.0143226 8.04286C0.0047742 8.50953 0 9.48571 0 10.9714C0 12.4572 0.0047742 13.4381 0.0143226 13.9143C0.0238718 14.3905 0.0381944 14.9238 0.057292 15.5143C0.0763888 15.9714 0.128906 16.419 0.214844 16.8571C0.300782 17.2952 0.420138 17.7333 0.572916 18.1714C0.859376 18.9143 1.28429 19.5619 1.84766 20.1143C2.41103 20.6667 3.0651 21.0857 3.8099 21.3714C4.23004 21.5429 4.66449 21.6762 5.11328 21.7714C5.56207 21.8667 6.01562 21.9143 6.47396 21.9143C7.06597 21.9524 7.59592 21.9762 8.0638 21.9857C8.53169 21.9952 9.51041 22 11 22C12.4896 22 13.4731 21.9952 13.9505 21.9857C14.428 21.9762 14.9627 21.9524 15.5547 21.9143C15.9939 21.9143 16.4379 21.8714 16.8867 21.7857C17.3355 21.7 17.7795 21.581 18.2188 21.4286C18.9635 21.1429 19.6128 20.7191 20.1667 20.1571C20.7205 19.5952 21.1406 18.9429 21.4271 18.2C21.599 17.7809 21.7279 17.3476 21.8138 16.9C21.8997 16.4524 21.9427 16 21.9427 15.5429C21.9618 14.9524 21.9761 14.4238 21.9857 13.9571C21.9952 13.4905 22 12.5143 22 11.0286C22 9.5238 22 8.5381 22 8.07143C22 7.60476 21.9809 7.07619 21.9427 6.48571C21.9427 6.02857 21.8997 5.57143 21.8138 5.11429C21.7279 4.65714 21.599 4.21905 21.4271 3.8ZM19.9375 15.4C19.9375 15.7619 19.9041 16.1143 19.8372 16.4571C19.7704 16.8 19.6797 17.1333 19.5651 17.4571C19.3741 17.9524 19.0972 18.3809 18.7344 18.7429C18.3715 19.1048 17.9514 19.3714 17.474 19.5429C17.1493 19.6762 16.8151 19.7714 16.4714 19.8286C16.1276 19.8857 15.7839 19.9238 15.4401 19.9429C14.8481 19.9619 14.3277 19.9762 13.8789 19.9857C13.4301 19.9952 12.4609 20 10.9714 20C9.48176 20 8.51259 19.9952 8.0638 19.9857C7.61501 19.9762 7.09462 19.9619 6.5026 19.9429C6.13976 19.9429 5.79123 19.9095 5.45703 19.8429C5.12283 19.7762 4.78386 19.6762 4.4401 19.5429C3.96267 19.3714 3.54254 19.1048 3.17969 18.7429C2.81684 18.3809 2.53993 17.9524 2.34896 17.4571C2.23437 17.1333 2.14366 16.8 2.07682 16.4571C2.00998 16.1143 1.97656 15.7714 1.97656 15.4286C1.93837 14.8571 1.91927 14.3429 1.91927 13.8857C1.91927 13.4286 1.91927 12.4572 1.91927 10.9714C1.91927 9.48571 1.91927 8.51905 1.91927 8.07143C1.91927 7.62381 1.93837 7.10477 1.97656 6.51429C1.97656 6.17143 2.00998 5.82857 2.07682 5.48571C2.14366 5.14286 2.23437 4.8 2.34896 4.45714C2.53993 3.98095 2.81684 3.56191 3.17969 3.2C3.54254 2.83809 3.96267 2.56191 4.4401 2.37143C4.78386 2.25714 5.12283 2.16667 5.45703 2.1C5.79123 2.03333 6.13976 2 6.5026 2C7.07552 1.98095 7.59114 1.96667 8.04948 1.95714C8.50781 1.94762 9.48176 1.94286 10.9714 1.94286C12.4609 1.94286 13.4301 1.94286 13.8789 1.94286C14.3277 1.94286 14.8481 1.9619 15.4401 2C15.7839 2 16.1276 2.03333 16.4714 2.1C16.8151 2.16667 17.1493 2.25714 17.474 2.37143C17.9514 2.56191 18.3715 2.83809 18.7344 3.2C19.0972 3.56191 19.3741 3.98095 19.5651 4.45714C19.6797 4.8 19.7704 5.13809 19.8372 5.47143C19.9041 5.80476 19.9375 6.15238 19.9375 6.51429C19.9566 7.08572 19.9709 7.6 19.9805 8.05714C19.99 8.51429 19.9948 9.48571 19.9948 10.9714C19.9948 12.4572 19.9948 13.4238 19.9948 13.8714C19.9948 14.319 19.9852 14.8286 19.9661 15.4H19.9375Z" fill="black"/>
</svg>
